<svg id="svg" xmlns="http://www.w3.org/2000/svg" xmlns:xlink="http://www.w3.org/1999/xlink" version="1.1" width="520" height="525" preserveAspectRatio="xMidYMid meet" buffered-rendering="static" style="background: rgb(255, 255, 255);" viewBox="0.95 -0.03 517.69 525.15"><g><path d="M 271.25 -0.0277777777777779 C 270.8375 -0.043055555555555625 270.15 0.2944444444444443 269.72222222222223 0.7222222222222222 C 269.2944444444445 1.1500000000000001 268.95694444444445 2.5124999999999997 268.97222222222223 3.75 C 268.9915059687787 5.311983471074379 268.5413223140496 5.847107438016529 267.5 5.5 C 266.40909090909093 5.136363636363637 266.1363636363636 5.545454545454546 266.5 7 C 266.8561414913691 8.42456596547646 266.4964952197919 9.005662833070952 265.25 9.019681953903335 C 264.2875 9.03050702855017 261.1375 10.38050702855017 258.25 12.019681953903335 C 255.3625 13.6588568792565 249.9625 15.720838575366379 246.25 16.601863500814176 C 241.54453363917364 17.718532362698127 237.22829595647374 18.02519164606865 232 17.6142949536846 L 224.5 17.024862905740843 L 221.75 22.012431452870423 C 220.2375 24.75559415379169 218.325 27 217.5 27 C 216.675 27 212.625 21.825 208.5 15.5 C 204.375 9.175 200.55 3.775 200 3.5 L 199 3 L 199 3.5 C 199 3.775 202.29425115688448 9.0625 206.32055812640996 15.25 C 210.34686509593544 21.4375 213.94686509593544 27.0625 214.32055812640996 27.75 C 214.6942511568845 28.4375 214.2125 29.964972631144263 213.25 31.144383624765027 C 212.2875 32.32379461838579 209.025 34.41936783554128 206 35.801212996221665 C 202.975 37.18305815690205 197.8 39.07071255648442 194.5 39.99600055084916 L 188.5 41.678342358785045 L 187.10868275199792 46.08917117939252 C 186.34345826559678 48.51512703072663 185.66845826559677 50.62663779071862 185.60868275199792 50.781417312708044 C 185.54890723839907 50.936196834697476 183.025 49.973398403849934 180 48.641865244157955 C 176.975 47.31033208446598 172.25 45.29193722028445 169.5 44.156543323754555 C 166.75 43.02114942722466 160.45 40.539680574922045 155.5 38.64216809641542 C 150.55 36.7446556179088 139.75 32.944296556850354 131.5 30.196925738507773 C 123.25 27.44955492016519 115.0375 24.931322203315343 113.25 24.600853034396994 C 111.4625 24.270383865478646 110 24.225 110 24.5 C 110 24.775 113.04240515575789 29.3875 116.76090034612865 34.75 C 120.47939553649941 40.1125 126.93953651195251 49.675 131.11676918046888 56 C 135.29400184898526 62.325 142.60159669322735 74.5875 147.35586883434024 83.25 L 156 99 L 155.0499024034225 102.75 C 154.52734872530488 104.8125 152.50234872530487 108.6375 150.5499024034225 111.25 C 148.59745608154012 113.8625 146.6625 115.99856231516083 146.25 115.99680514480184 C 145.8375 115.99504797444285 141.45 115.24382947606257 136.5 114.32743070395676 C 131.19045285605551 113.34446858614896 122.37437103325622 112.6591045581971 115 112.65601624829029 C 105.17579600066752 112.6519019738117 100.6804587195461 113.13508015792364 94 114.91318656317691 C 89.325 116.15750941487532 81.9 118.88847407000335 77.5 120.98199690790588 C 73.1 123.0755197458084 65.45 127.49059112853118 60.5 130.79326664728984 C 55.55 134.09594216604847 46.55 141.04734862528784 40.5 146.24083655671063 C 34.45 151.43432448813343 27.22744284327854 158.11724496209195 24.449872985063422 161.09177094328513 C 21.672303126848306 164.0662969244783 17.6011040016523 168.975 15.402763817961187 172 C 13.204423634270075 175.025 10.414480790991536 179.1875 9.202890832897765 181.25 C 7.9913008748039935 183.3125 7.189971503938271 185.3375 7.4221588976406 185.75 C 7.654346291342929 186.1625 10.691846291342928 186.12810348709027 14.1721588976406 185.67356330464506 C 17.652471503938273 185.21902312219984 24.325 185.08287493143294 29 185.3710117696075 C 33.675 185.65914860778202 43.125 187.04911306426203 50 188.45982167289634 C 56.875 189.87053028153068 66.1 192.22543632305988 70.5 193.6929462096279 C 74.9 195.16045609619596 83.225 198.7980616748476 89 201.77651416218708 C 94.775 204.7549666495266 101.975 208.80684890342835 105 210.78069694863538 L 110.5 214.36951157628454 L 99.5 218.22648096674817 C 93.45 220.34781413150316 83.1 224.75257743369792 76.5 228.0148438605143 C 69.9 231.27711028733071 60 236.77982861058612 54.5 240.24310680108192 C 49 243.7063849915777 41.47242942586011 248.78098158471892 37.77206539080025 251.5199881191735 C 34.07170135574039 254.25899465362806 31.182565065721143 256.95 31.351762524090816 257.5 C 31.52095998246049 258.05 34.77353055660038 258.60055123709293 38.579697133290566 258.7234471935398 C 42.385863709980754 258.8463431499867 53.15 259.4195724626063 62.5 259.9972901104723 C 71.85 260.5750077583383 87.15 262.13327359259125 96.5 263.46010307547886 C 105.85 264.7869325583665 117.775 266.81246698171964 123 267.9612906829302 C 128.225 269.11011438414084 133.0625 270.26379731279496 133.75 270.52503052438385 C 134.68443332431784 270.88009236922346 134.43197998377212 272.3756986937005 132.75 276.4493186373634 L 130.5 281.89863727472675 L 117.25190424433725 288.6993186373634 C 109.96545157872274 292.43969338681353 104.15242810367276 295.95 104.33407429978173 296.5 C 104.52998161197098 297.09318072171163 110.83490574213404 297.6017048195721 119.83217005544448 297.75 C 129.11072335181484 297.9029314564161 135 298.3882741743356 135 299 C 135 299.5882352941176 131.5 300 126.5 300 C 120.27777777777777 300 117.59803921568627 300.4019607843137 116.5 301.5 C 115.675 302.325 114.56961840649424 304.6875 114.04359645887608 306.75 C 113.51757451125792 308.8125 112.50507451125793 313.1515660117984 111.79359645887608 316.3923689151077 C 110.8850218609108 320.5309522278345 109.75590809585759 322.8542569917939 108 324.1982083249486 C 105.97529842388337 325.7478910155642 105.02470157611663 325.90908049003485 103 325.04604131981546 C 101.625 324.459940694889 99.41194602803087 322.0723129604606 98.08210228451306 319.74020190997453 C 96.75225854099524 317.40809085948854 95.39904118570816 313.25 95.07495260609733 310.5 L 94.48570064316854 305.5 L 92.54660410367134 309.5 C 90.91060276733172 312.874770266495 90.59910544846184 315.76645778395573 90.55375378208707 328 L 90.5 342.5 L 93.25 348.75 C 95.3563829787234 353.53723404255317 95.76595744680851 355.468085106383 95 357 C 94.45 358.1 92.5375 359.900086107783 90.75 361.0001913506289 C 88.47862771181585 362.3980926444394 84.33827970028726 363.31208853855753 77 364.0355505786772 C 71.225 364.60489291125793 64.7 365.55272498092603 62.5 366.1418440668285 C 60.3 366.7309631527311 56.7 368.123256006349 54.5 369.23582818597947 C 52.3 370.34840036561 46.9 374.29969324310235 42.5 378.01647902485144 C 38.1 381.7332648066005 29.759007297288967 389.66256030036084 23.964460660642146 395.63713567765217 C 18.105520034983495 401.67810567825404 11.558409388892684 409.60721548669096 9.214992939804262 413.5 C 6.8973323299902445 417.35 4.1008250327012785 423.3125 3.0005322791621154 426.75 C 1.9002395256229518 430.1875 0.9799635920185608 434.6875 0.9554746489301351 436.75 C 0.91992644245723 439.743929774169 1.1719498510675792 440.26903242341564 2.205474648930135 439.35443391023716 C 2.917463592018561 438.72437256086755 3.8489850278190847 435.79937256086754 4.27552228404241 432.85443391023716 C 4.734480327434258 429.68565261087343 6.775454824004947 424.2553894609227 9.27552228404241 419.5513202283296 C 11.598985027819085 415.17954635391084 16.68304801518064 407.9795463539108 20.573440033734755 403.5513202283296 C 24.463832052288872 399.1230941027483 32.14320727509654 391.45 37.6387183066407 386.5 C 43.13422933818485 381.55 48.978248554158874 376.375 50.625427675471855 375 C 52.272606796784835 373.625 54.04323157397717 372.3993997684784 54.56014940256591 372.276443929952 C 55.07706723115466 372.1534880914256 57.4125 371.3659880914256 59.75 370.526443929952 C 62.0875 369.6868997684784 68.1625 368.3268095924567 73.25 367.5040213165704 C 78.3375 366.68123304068416 84.3 366.016100072216 86.5 366.02594805330773 C 89.5521340092089 366.03961048876783 91.44861755437033 365.26851645394623 94.50317160268027 362.7719267367373 C 96.70491598415441 360.9723670315318 99.85491598415442 358.5524031824146 101.50317160268027 357.3942292942546 C 103.15142722120612 356.2360554060947 108.55 353.25434246426187 113.5 350.7682005346261 C 118.45 348.2820586049903 125.425 345.0815466494238 129 343.6559517444782 C 132.575 342.2303568395327 136.59705115853706 340.93706978136555 137.93789146341567 340.7819805041068 L 140.3757829268313 340.5 L 143.14103545657588 357 C 144.66192434793538 366.075 145.90439006830735 374.4 145.90207039073582 375.5 C 145.89900598079032 376.9531549476609 143.51937036456297 378.89762888085613 137.1989263975756 382.611608397581 C 131.5223117424993 385.9472649849049 126.06795479918172 388.2761211209641 121.5 389.3146059187329 C 117.65 390.189869936697 111.575 392.0154529493964 108 393.371457058065 C 104.425 394.72746116673363 99.025 396.9633646248655 96 398.3401314094692 C 92.975 399.7168981940729 89.94815698672186 401.441091402462 89.27368219271524 402.17167187255615 C 88.59920739870863 402.9022523426503 87.22429957397891 406.2 86.21833147109365 409.5 C 84.92762643241952 413.7340573378105 82.77348958322763 417.4131045507053 78.89939560081665 422 C 75.87994897504956 425.575 71.43383349890833 431.875 69.01913898716947 436 C 66.60444447543061 440.125 63.00146816772566 445.075 61.01252497004735 447 C 59.02358177236904 448.925 53.69979511415537 454.55 49.18188795179475 459.5 C 44.66398078943413 464.45 40.97482125204187 469.2875 40.98375564647863 470.25 C 40.992690040915384 471.2125 42.18728925860759 474.3625 43.638420574683536 477.25 C 45.08955189075948 480.1375 48.63524363807942 485.65 51.51773556872786 489.5 C 54.40022749937629 493.35 57.50797464875016 497.175 58.42384034511423 498 C 59.3397060414783 498.825 60.06901429415836 500.2875 60.04452535106991 501.25 C 60.02003640798146 502.2125 60.6879945430539 504.6875 61.528876762341994 506.75 C 62.71208481572058 509.65215032987544 62.88165474974549 512.1373581092263 62.278876762341994 517.741959425067 L 61.5 524.9839188501339 L 212.75 524.991959425067 L 364 525 L 362.1774600676624 522.25 C 361.17506310487676 520.7375 358.92506310487676 516.9125 357.1774600676624 513.75 C 355.4298570304481 510.5875 352.8663563122094 504.0625 351.4807918049098 499.25 C 350.0952272976103 494.4375 348.9702272976103 488.5875 348.9807918049098 486.25 C 348.9913563122094 483.9125 349.44504945251964 479.8625 349.9889987833769 477.25 C 350.5329481142343 474.6375 352.2204481142343 470.61957959614426 353.7389987833769 468.32128799143163 C 355.25754945251964 466.02299638671906 359.3125 460.96049638671906 362.75 457.07128799143163 C 366.7378389518084 452.5594227607619 369.54291865156597 450.1809728838553 370.5 450.5 C 371.325 450.775 371.9942606777273 451.5625 371.9872459505051 452.25 C 371.9795865783014 453.0006804218104 374.07672880669776 453.79611964025673 377.2372459505051 454.24130790477506 C 380.1317606777273 454.6490272524013 383.5125 454.98652725240134 384.75 454.99130790477506 C 386.2232087178228 454.9969991360913 387.0057540094969 454.3958290027511 387.0166666666646 453.25 C 387.0258333333302 452.2875 386.4633333333302 450.9299999999991 385.7666666666646 450.2333333333313 C 385.0699999999991 449.53666666666345 383.7125 448.97416666666345 382.75 448.9833333333313 C 381.7875 448.9924999999991 380.7238144469243 448.4375 380.3862543264984 447.75 C 380.02517944666045 447.0146080953657 382.1865334471964 444.2835976801138 385.6362543264984 441.1162858205935 C 388.86131444692427 438.1552430219199 394.875 433.7653919761584 399 431.3610612744569 C 403.125 428.95673057275536 406.95 426.99113539000007 407.5 426.9930719794452 C 408.05 426.9950085688902 409.0625 428.79735961465167 409.75 430.99829652558174 C 410.4375 433.1992334365118 411.01466763099575 437.1375 411.0325947355461 439.75 L 411.06518947109225 444.5 L 409.2825947355461 442.7752782070005 C 408.30216763099577 441.8266812208508 406.9375 441.03918122085076 406.25 441.0252782070005 C 405.5625 441.01137519315023 404.6625 439.86349727087634 404.25 438.4744383797252 C 403.8375 437.08537948857406 402.9375 435.73537948857404 402.25 435.4744383797252 C 401.5625 435.21349727087636 400.9889433729472 435.5625 400.9754297176604 436.25 C 400.96191606237363 436.9375 401.63691606237364 439.1875 402.4754297176604 441.25 C 403.43273087767585 443.6046827533256 403.6279154008868 445.18604229955656 403 445.5 C 402.45 445.775 402 446.9 402 448 C 402 449.5 402.5 449.875 404 449.5 C 405.5691519000357 449.1077120249911 406.10150022372176 449.5924161374509 406.47116477352535 451.75 C 406.7303053989643 453.2625 407.65034180694573 455.175 408.5156901245952 456 C 409.3810384422447 456.825 410.08934313948197 458.625 410.08970056290025 460 L 410.09035042366077 462.5 L 407.7951752118304 460.7525414185053 C 406.53282884532365 459.79143919868324 403.8125 458.10393919868324 401.75 457.0025414185053 C 399.6875 455.90114363832737 397.55 455 397 455 C 396.45 455 396.00572351660225 455.3375 396.0127189257828 455.75 C 396.0197143349633 456.1625 398.56447705886734 458.075 401.66774720112517 460 C 404.771017343383 461.925 410.0527938267807 466.2279321254068 413.4050282753424 469.562071389793 C 417.51917181838024 473.65400700367843 421.02117534763465 478.5289143972751 424.1806284452687 484.562071389793 C 426.7549740901665 489.4779321254068 430.2544687802341 496.875 431.95728331208556 501 C 433.6600978439371 505.125 436.19657979299546 511.875 437.59390986554877 516 C 438.991239938102 520.125 440.5467452480275 523.95 441.05058833204987 524.5 C 441.5544314160722 525.05 442.2334349617905 525.275 442.5594851003128 525 C 442.8855352388351 524.725 442.163555520232 521.35 440.9550857256394 517.5 C 439.74661593104673 513.65 437.14387936990465 506.675 435.17122670087923 502 C 433.1985740318538 497.325 429.4965898129499 489.225 426.9445951033149 484 C 423.7565186210524 477.4726747054251 420.4576968345232 472.54711492794297 416.4023023610802 468.25901838479535 C 413.1560360624861 464.82647849643286 411.0625 462.01397849643286 411.75 462.00901838479535 C 412.4375 462.0040582731579 412.9966006292255 461.4375 412.9924458427233 460.75 C 412.98829105622116 460.0625 412.53556938651036 456.575 411.9863976878104 453 C 411.1272535850203 447.4071404721954 411.2118219837508 446.36043992735455 412.5923618230205 445.5 C 413.9337044018835 444.663990289679 414.1396841026585 442.8375140145715 413.84840997793344 434.36229008630704 L 413.5 424.2245801726141 L 418.25 422.61229008630704 C 421.2421825061939 421.5966550986949 423.18503342040066 421.37006684080126 423.5 422 C 423.775 422.55 424.28589633420825 425.1375 424.6353251871294 427.75 C 425.07800365767247 431.05967948017326 424.73219233189667 434.1677395492731 423.49488194909753 438 C 422.51820931525884 441.025 419.9823129810506 446.9875 417.8595567619681 451.25 C 415.45361765782485 456.0811319685326 414.4707851663657 459.0051984824975 415.25 459.01380269300336 C 415.9375 459.0213941741552 417.7877696967127 456.4338941741552 419.3617104371393 453.26380269300336 C 420.93565117756594 450.0937112118515 423.3867197228477 444.35 424.8085294266544 440.5 C 426.51292278023493 435.884815285958 427.4117561057054 431.38558664691845 427.44681898951507 427.2936939775924 L 427.5 421.0873879551848 L 430 421.6130475080131 C 431.375 421.9021602620687 434.3 422.7544853162169 436.5 423.507103183898 C 438.7 424.25972105157905 441.2875 426.02851196288975 442.25 427.4377496534772 L 444 430 L 442.1334141836521 435.25 C 441.10679198466073 438.1375 438.7297899325441 443.65 436.8511874011707 447.5 C 434.5993992399063 452.11480503517146 432.3522409444425 455.1814842756653 430.256293356785 456.5 C 428.5077041637463 457.6 427.059706215863 459.0625 427.03852013926644 459.75 C 427.0173340626699 460.4375 427.3375 461.01370846550793 427.75 461.03046325668424 C 428.1625 461.0472180478606 430.3 459.8678121866886 432.5 458.4095613429687 C 434.7 456.9513104992488 438.525 453.8681828985175 441 451.55816667467695 C 443.475 449.2481504508364 446.625 446.7765209372046 448 446.0656566443841 C 450.2467420055616 444.90410852297777 450.6810021982101 445.01259729957167 452.2867372618528 447.1365880559915 C 453.26944275587186 448.4364646251962 455.35062661082856 451.975 456.91159027286767 455 C 458.4725539349068 458.025 460.9713716748316 464.55 462.4645185838116 469.5 C 463.9576654927916 474.45 465.58556647116967 482.1 466.0820763135406 486.5 C 466.5785861559115 490.9 466.988236648153 496.8625 466.9924107407439 499.75 C 466.99658483333474 502.6375 467.45 505 468 505 C 468.55 505 469.25257280480287 502.8625 469.5612728995619 500.25 C 469.869972994321 497.6375 469.8420705797456 493.475 469.49926753383886 491 C 469.13089200824356 488.3403695307408 469.3103186722339 485.9887862414609 469.93799463427695 485.25 C 470.52475544561975 484.5593716492862 470.7240565163903 482.54563371185577 470.3833628233532 480.75 L 469.7667256467064 477.5 L 472.4098437360308 480 C 473.8635586851592 481.375 476.4613528643407 485.2 478.1827196897675 488.5 L 481.3124775541798 494.5 L 480.6512301162941 502.5 C 480.28754402545695 506.9 479.32257756969045 512.975 478.50686021459074 516 C 477.69114285949104 519.025 477.01839675684914 522.2875 477.01186887538654 523.25 C 477.00534099392394 524.2125 477.45 525 478 525 C 478.55 525 479.1887082155638 523.7625 479.4193515901418 522.25 C 479.6499949647197 520.7375 480.7153425165579 517.025 481.78679059422655 514 L 483.7348780081695 508.5 L 487.6108142950587 516.5 C 489.7425792528477 520.9 491.4897317010096 524.6356906315408 491.4933752909739 524.8015347367573 L 491.5 525.1030694735146 L 493.2381019792223 524.8015347367573 C 494.72859703942817 524.5429561027129 494.1916468730095 522.7905013263227 489.468925614105 512.5 L 483.9616472697654 500.5 L 483.9808236348827 493.25 C 483.99447671401566 488.08818632424095 483.4540034512241 484.91990362539264 482.10434781002385 482.25 C 481.06173910553696 480.1875 478.14965710667997 475.8 475.63305447923045 472.5 C 472.39646315902274 468.2558848424512 471.3058237900998 466.0610287893872 471.90625186932664 465 C 472.373113061329 464.175 473.7520021103502 459.225 474.9704497560404 454 C 476.1888974017306 448.775 477.2565020616766 440.9453119164293 477.3429045559204 436.60069314762075 L 477.5 428.7013862952415 L 469 421.8067665710706 L 460.5 414.91214684689976 L 452 399.5121162821745 C 445.1464626368307 387.09509453284574 442.67676868158463 383.5201256723382 439.25 381.0560428587246 C 436.9125 379.37521928642605 434.55 377.1 434 376 L 433 374 L 434 374 C 434.55 374 439.1625 375.41230298811064 444.25 377.13845108469025 C 449.3375 378.8645991812699 458 382.5145352216673 463.5 385.2494200633512 C 469 387.984304905035 475.525 391.60805190384355 478 393.30219117181457 C 480.475 394.99633043978565 485.425 398.7198916674977 489 401.5767716778413 C 492.575 404.4336516881849 497.55633383972116 409.18510170126575 500.06963075493593 412.13554948468754 C 502.5829276701507 415.0859972681094 506.301710527752 420.2 508.3335926607166 423.5 C 510.3654747936812 426.8 513.1017508072416 432.425 514.4142060241842 436 C 515.7266612411267 439.575 517.2953783835254 442.6125 517.9002441184035 442.75 C 518.6182198183749 442.9132125165198 518.8181330314761 441.69818774779736 518.4761140626763 439.25 C 518.1879767971483 437.1875 516.2483666458119 431.9 514.1658692819288 427.5 C 512.0833719180457 423.1 507.7066205898414 416.3526719243584 504.43975521925256 412.50593760968536 C 501.17288984866366 408.6592032950123 496.752521999865 403.93420329501225 494.61671555525555 402.00593760968536 C 492.4809091106461 400.0776719243584 487.7559091106461 396.3178296116501 484.11671555525555 393.65073247033354 C 480.477521999865 390.9836353290169 471.425 385.80159514173215 464 382.1350876097006 C 456.575 378.46858007766906 446 373.97944106762475 440.5 372.1592231429355 C 431.5721744688568 369.2045707683381 429.8298909569645 368.2144867866595 424.25 362.92486800356835 C 419.09809313840657 358.0409691041093 417.99730962357967 356.4289915680286 417.98468722548296 353.75 C 417.9762651994986 351.9625 417.5389513719967 349.825 417.0128787199232 349 C 416.19162004891 347.71208206525205 415.8606885447553 347.7827760870027 414.67228827139934 349.5 C 413.91103617678465 350.6 412.54835000428653 352.2875 411.64409677695903 353.25 C 410.7398435496316 354.2125 409.55 355 409 355 C 408.45 355 407.2468421505952 353.7625 406.3263158902117 352.25 L 404.65263178042335 349.5 L 406.3263158902117 343.75 C 407.2468421505952 340.5875 408 336.425 408 334.5 C 408 332.2765043532722 407.17939005861075 330.0897786534475 405.75 328.5042978077064 C 404.5125 327.1316616019449 402.6 325.9056580043016 401.5 325.779845368499 C 400.4 325.65403273269646 397.025 325.9077302090721 394 326.34361753822265 C 390.975 326.7795048673732 388.1301900051981 326.7680084650165 387.6782000115512 326.31806997743 C 387.2262100179044 325.8681314898435 387.84966224007843 318.525 389.0636493941601 310 C 390.9113638097079 297.024767651302 391.08260429567605 293.68555882216066 390.1149253526183 289.5 C 389.411045458291 286.45546676655624 387.50037867681414 282.7010822292082 385.2294759700094 279.90028549306464 C 383.17826418650424 277.37044251425016 378.46378757198954 271.74544251425016 374.75286127108785 267.40028549306464 C 370.30961480424116 262.19764819531343 367.6766490914225 258.13415153911507 367.0420037690404 255.5 C 366.51195844381596 253.3 365.79406561629065 248.35 365.4466863745398 244.5 L 364.8150877531745 237.5 L 375.9075438765873 232.25 C 382.0083947444643 229.3625 386.8265620476641 226.6625 386.6145823281424 226.25 C 386.40260260862067 225.8375 383.8151026086207 225.1373400121478 380.8645823281424 224.69408891588398 C 377.91406204766406 224.25083781962016 374.4875 223.68833781962016 373.25 223.44408891588398 C 372.0125 223.1998400121478 371 222.325 371 221.5 C 371 220.675 371.61281961667305 218.7625 372.3618213703846 217.25 C 373.4872092840896 214.97744294516767 377.0029255166879 213.09283978145882 392.6118213703846 206.3949674717065 C 403.00031961667304 201.93719958114508 417.02458587726755 196.0871995811451 423.77685750503895 193.3949674717065 C 430.52912913281034 190.70273536226793 435.9291291328104 188.0924548550577 435.77685750503895 187.5943441223504 C 435.6245858772675 187.09623338964312 431 185.65609304859274 425.5 184.3940322533495 C 420 183.13197145810628 409.2 180.967558668368 401.5 179.5842260539311 C 393.8 178.2008934394942 384.35 176.76156695532057 380.5 176.38572275576752 C 376.65 176.00987855621446 373.1693907485327 175.20683649089506 372.76531277451704 174.60118483283551 C 372.36123480050145 173.99553317477597 372.0237348005015 172.2625 372.01531277451704 170.75 C 372.00569004661696 169.0218676033643 373.0218676033643 167.05129621048934 374.75 165.44689486919353 L 377.5 162.89378973838706 L 375.25 162.44689486919353 L 373 162 L 375 158 C 376.1 155.8 380.15 150.625 384 146.5 L 391 139 L 386.5198235770108 129.75 L 382.0396471540217 120.5 L 382.0198235770108 101.25 L 382 82 L 377 78.5 C 374.25 76.575 370.1639518986387 72.6375 367.91989310808594 69.75 C 365.67583431753314 66.8625 361.4721250850761 60.225 358.578317035959 55 L 353.31684785574623 45.5 L 349.4084239278731 44.31399439348037 C 347.2587907675429 43.66169130989458 342.9125 42.424191309894574 339.75 41.56399439348037 C 335.7954106484498 40.48834994576876 332.78102575138644 38.829080011880585 330.09610094739054 36.25 C 327.9127720907584 34.15274207861552 324.27673951780423 28.642182994131936 321.84610094739054 23.746780753519666 L 317.5 14.993561507039328 L 307 15.246780753519664 L 296.5 15.5 L 290.5 12.127880248452927 C 287.2 10.273214385102037 281.6875 6.785714385102037 278.25 4.377880248452927 C 274.8125 1.9700461118038168 271.6625 -0.012499999999999956 271.25 -0.0277777777777779 Z " class="odd" fill="#000000"></path><path d="M 279.5 30.604620478164268 C 284.6280455415955 30.88831939273411 290.730948765705 32.10725775831652 296.5 34.00004581164143 C 301.45 35.62410850123259 309.325 39.25807131050259 314 42.07551872113031 C 318.675 44.89296613175803 324.525 48.80079083368884 327 50.7595736143099 C 329.475 52.71835639493095 334.121916877815 56.83627256014711 337.32648195070004 59.910498425901366 C 340.5310470235851 62.98472429165561 344.10401311165754 66.85 345.26640659086115 68.5 C 346.7709153888417 70.6356275315384 345.8124755838352 70.05588930287064 341.9399246401611 66.48788745655133 C 338.9479660880725 63.73122555765458 334.025 59.38994481893124 331 56.84059692605503 C 327.975 54.29124903317882 321.675 49.89058975527183 317 47.06135408626173 C 312.325 44.23211841725161 304.225 40.50501813826087 299 38.77890902183785 C 290.54475547215867 35.98566985225071 288.18030887727326 35.634450204193506 277.5 35.58525582215724 C 268.07918800918816 35.54186278647883 263.8880074942574 35.99295792406447 258 37.68403327914901 C 253.875 38.8687610238958 246.45 41.775691136596016 241.5 44.143877974038375 C 236.55 46.512064811480734 229.0125 51.04849597354852 224.75 54.22483611196679 C 220.4875 57.401176250385056 214.15640043872872 62.8125 210.6808898638416 66.25 C 207.20537928895448 69.6875 202.38301633373655 75.2 199.9645277411351 78.5 C 197.54603914853368 81.8 193.4518622546568 88.775 190.86635686585316 94 C 188.2808514770495 99.225 185.39494875794892 106.425 184.4532397122963 110 C 183.51153066664367 113.575 182.23680712179183 119.425 181.62052072373666 123 C 180.94687734327212 126.90772065189279 180.77174155338847 133.08930986661 181.18137722052015 138.5 C 181.55613469180622 143.45 182.99842051866847 152 184.38645683576956 157.5 C 185.77449315287066 163 187.61466075142462 169.525 188.47571816588948 172 C 189.33677558035433 174.475 190.00020303301082 176.95 189.950001394015 177.5 C 189.8997997550192 178.05 188.967837881939 176.475 187.87897500939235 174 C 186.7901121368457 171.525 184.46127416854455 164.775 182.70377952427867 159 L 179.50833471652254 148.5 L 179.6229011928397 132.5 L 179.73746766915684 116.5 L 183.47932916672374 106 C 185.53735299038553 100.225 189.24546590175146 91.225 191.7195800808703 86 C 194.1936942599891 80.775 197.91483681065372 74.025 199.98878574901394 71 C 202.06273468737416 67.975 206.40119155044792 63.003343914637014 209.62980100028898 59.951875365860026 C 212.85841045013004 56.90040681708304 218.425 52.329367387161824 222 49.794009966035105 C 225.575 47.25865254490839 231.875 43.35896348546689 236 41.12803427838733 C 240.125 38.89710507130777 246.875 35.88022398707759 251 34.423854091209144 C 255.125 32.9674841953407 261.425 31.412787529805264 265 30.968972612241508 C 268.575 30.525157694677755 275.1 30.361199234342997 279.5 30.604620478164268 Z " class="even" fill="#ffffff"></path><path d="M 280 39.671036351848485 C 288.5843582346774 40.06358601766904 293.27473846584854 40.815679921657186 298.5 42.637477565145744 C 302.35 43.97978758763727 308.425 46.70926967210642 312 48.70299330841053 C 315.575 50.69671694471463 321.19885082736414 54.391657665173945 324.4974462830315 56.913972687209 C 327.7960417386988 59.43628770924405 333.5879916057272 64.425 337.368445987539 68 C 341.1489003693508 71.575 345.1712943675176 75.85 346.30709931679837 77.5 C 347.6659200945577 79.47397826512595 346.34201015038576 78.60091134718468 342.43609961229083 74.94722683272849 C 339.1712448255309 71.89320159072915 334.475 68.0014835000859 332 66.2989644090768 C 329.525 64.59644531806771 324.575 61.849372419530525 321 60.19435796788304 C 317.425 58.53934351623556 311.575 56.01200869350494 308 54.57805836181498 L 301.5 51.97087594056052 L 287.5 51.97428876131073 C 276.84981248288074 51.976884988521604 271.5858214383539 52.455756288288214 265.5 53.975653981302756 C 261.1 55.07452780088574 252.775 58.31276024202146 247 61.17172607271546 C 238.46845174483678 65.39534597651262 234.92963826970575 67.88181863386713 228.1234684384113 74.43492288244317 C 223.51637607953754 78.87071529709944 217.84072784232333 84.975 215.51091680015753 88 C 213.1811057579917 91.025 209.20345886108737 97.325 206.67170147370342 102 C 204.13994408631947 106.675 200.91359056962452 113.875 199.50202699215907 118 C 198.09046341469363 122.125 196.27044990241447 129.325 195.4575525204276 134 C 194.64465513844075 138.675 193.98024544949857 147.225 193.98108654500052 153 C 193.98192764050248 158.775 193.64902725240088 165.86823932227273 193.24130790477477 168.76275404949496 C 192.83358855714866 171.6572687767172 192.275 174.02948794032696 192 174.03435219085 C 191.725 174.03921644137304 189.95430765518242 169.19597711910032 188.06512812262758 163.27159814135504 L 184.63025624525517 152.5 L 184.5868259741335 135.5 L 184.5433957030118 118.5 L 187.3882789326355 110 C 188.95296470892853 105.325 191.36746460656116 99.25 192.75383426070803 96.5 C 194.1402039148549 93.75 197.66217906367166 87.9 200.58044570252306 83.5 C 203.49871234137447 79.1 208.27444841056416 73.04834432117556 211.19319252294463 70.05187626927903 C 214.1119366353251 67.0554082173825 219.2 62.50944041505946 222.5 59.94972559745004 C 225.8 57.39001077984062 231.65 53.41940363079688 235.5 51.12615415513061 C 239.35 48.83290467946434 246.1 45.56975848879001 250.5 43.874718175854326 C 254.9 42.17967786291864 260.75 40.42210142434374 263.5 39.96899275679898 C 266.25 39.515884089254236 273.675 39.38180370702651 280 39.671036351848485 Z " class="even" fill="#ffffff"></path><path d="M 316 69.93456663757641 C 316.275 69.93788433145039 317.2719839063748 72.31646407639869 318.2155197919441 75.22029940412818 C 319.1590556775133 78.12413473185768 320.18974451847635 81.85 320.5059394385286 83.5 C 320.8677541495153 85.38805776205795 320.31823110854305 84.64676293676325 319.02333623607467 81.5 C 317.8917095546728 78.75 316.55210460139574 76.05 316.04643633990355 75.5 C 315.4650084202207 74.86759852223695 313.31844219332095 78.1759852223695 310.2070052838773 84.5 C 307.5009864645551 90 304.03875767562965 97.65 302.5131635307096 101.5 C 300.6027149101368 106.32122143277567 299.49074906005626 111.45691376980444 298.9406293284479 118 L 298.14190266240445 127.5 L 298.4349648793462 118 C 298.6713611128268 110.33690292286266 299.348547771495 106.75977617834063 301.9372039891423 99.5 C 303.8162743333729 94.23022720070931 304.9088108181968 89.56744319982268 304.5731904409983 88.25 C 304.2579356984492 87.0125 302.65 84.875 301 83.5 C 299.35 82.125 297.1 81 296 81 C 294.9 81 292.65 82.35 291 84 C 289.35 85.65 288 87.9 288 89 C 288 90.1 288.5625 91.28815165156946 289.25 91.6403370034877 C 289.95439476387133 92.00117702938353 291.25414173555373 91.23732969880338 292.22776415441115 89.8903370034877 C 293.63657596522927 87.9412660068755 293.95963313704453 87.82305717181526 293.97776415441115 89.25 C 293.98999386948503 90.2125 292.15929271708336 94.0375 289.90953937129643 97.75 C 287.65978602550945 101.4625 285.1283441769385 106.075 284.2841130411389 108 C 283.43988190533923 109.925 282.1767009220741 113.975 281.47704418943863 117 C 280.372512836259 121.77549516429654 280.1972247076137 122.03895146818871 280.14636334365395 119 C 280.11414561110786 117.075 280.77467535562533 113.7 281.61420722035945 111.5 C 282.45373908509356 109.3 283.62904275811655 106.15 284.22599316041055 104.5 C 285.0580528857616 102.20014637471849 284.9832972313146 100.70213188435993 283.9056787641089 98.08128009606185 C 283.132555443849 96.20098414889586 281.4875 93.61348414889586 280.25 92.33128009606185 C 279.0125 91.04907604322783 278.45 90 279 90 C 279.55 90 281.4625 91.78501231138698 283.25 93.96669402530439 C 285.0375 96.1483757392218 287.0625 97.9483757392218 287.75 97.96669402530439 C 288.4375 97.98501231138698 289.0034794126945 96.9875 289.00773202821006 95.75 C 289.0119846437256 94.5125 288.3369846437256 92.4875 287.50773202821006 91.25 L 286 89 L 288 85.5 C 289.1 83.575 290.9 81.55 292 81 C 293.1 80.45 295.0125 79.9905665890745 296.25 79.97903686461002 C 297.4875 79.96750714014554 300.3 81.30498815253523 302.5 82.9512168921427 C 304.7 84.59744563175015 306.8375 85.95687904267564 307.25 85.97218002753266 C 307.6625 85.9874810123897 309.6875 82.3839202550517 311.75 77.96426723344823 C 313.8125 73.54461421184476 315.725 69.93124894370244 316 69.93456663757641 Z " class="even" fill="#ffffff"></path><path d="M 322.11546741413457 88.30548852997498 C 323.25995269525544 89.79794531205734 323.9767891307051 89.92797871134053 326.25 89.05548852997498 C 327.7625 88.47496983848875 329.3375 88.01801693379484 329.75 88.04003763065519 C 330.1625 88.06205832751554 329.2625 88.73705832751554 327.75 89.54003763065519 C 325.3834570420203 90.79642441759638 325.0768571846898 91.45317650420583 325.55118888098485 94.25 C 325.8543427655265 96.0375 326.3197543522825 99.75 326.58543685155365 102.5 C 327.00533664129665 106.84625699833806 326.75882380222214 106.3886368971747 324.70004122630166 99 C 323.39739113314187 94.325 321.97143988274644 89.6 321.5312606698674 88.5 L 320.73093482826914 86.5 L 322.11546741413457 88.30548852997498 Z " class="even" fill="#ffffff"></path><path d="M 336.5 87 C 336.775 87 337.675 87.675 338.5 88.5 C 339.325 89.325 339.9850288218824 90.7875 339.96673071529426 91.75 C 339.94843260870607 92.7125 339.03766348175344 94.625 337.9427993220662 96 C 336.8479351623789 97.375 335.79380879365743 98.275 335.6002962804629 98 C 335.4067837672683 97.725 334.9675528942209 96.4875 334.62422767369094 95.25 C 334.12224471306354 93.44062545764218 334.3108125167557 93.1468751525474 335.58712609671363 93.75 C 336.5845100668321 94.22131603414356 337.49765276522965 93.9426320682871 338.0445944397289 93 C 338.59785101682627 92.04648445002802 338.3839474954532 90.68027332495797 337.4574683430152 89.25 C 336.65586075435687 88.0125 336.225 87 336.5 87 Z " class="even" fill="#ffffff"></path><path d="M 272.75 87.98141137171335 C 273.4375 87.991635117271 274.7875 88.31678213559599 275.75 88.7039603013244 C 277.2672756936084 89.31430421816141 277.193889940524 89.480535865584 275.1981665027221 89.9539603013244 C 273.55363908021263 90.3440742080482 272.1972404272072 92.14195626416446 270.4481665027221 96.25 C 269.1016749262249 99.4125 266.8627676803109 104.5875 265.47281706735765 107.75 L 262.9456341347153 113.5 L 263.22281706735765 109.06878026874665 L 263.5 104.6375605374933 L 259.31110404439437 101.56878026874665 C 257.00721126881126 99.88095112093599 255.0947112688113 98.1625 255.06110404439437 97.75 C 255.02749681997744 97.3375 256.0125 97.50498389220368 257.25 98.12218642711929 C 258.4875 98.73938896203491 260.7016631496237 100.42688896203491 262.1703625547193 101.87218642711929 L 264.8407251094386 104.5 L 267.37657735040983 100.5 C 268.771296082944 98.3 270.26963293332034 94.57913511727101 270.7062147956905 92.23141137171335 C 271.1427966580607 89.88368762615569 272.0625 87.9711876261557 272.75 87.98141137171335 Z " class="even" fill="#ffffff"></path><path d="M 315.0847155697778 88.75183790147543 C 315.4063091331557 89.16332705566394 316.4058388125147 91.525 317.3058926350201 94 C 318.20594645752544 96.475 319.67463303976706 101.65 320.56964059555696 105.5 C 321.46464815134686 109.35 322.2239361921433 115.65 322.2569473528824 119.5 C 322.29681169765973 124.149267822052 321.7600174610901 127.591411368333 320.65848382256763 129.75 C 319.74631772015545 131.5375 318.1 133.45 317 134 C 315.9 134.55 314.325 135 313.5 135 C 312.675 135 310.65 133.65 309 132 L 306 129 L 306.0180942309137 122.25 C 306.02804605791613 118.5375 306.71885722444375 112.8 307.5532301565306 109.5 C 308.3876030886174 106.2 310.2919606847063 100.01332705566395 311.78513592561694 95.75183790147543 C 313.2783111665276 91.49034874728692 314.7631220064 88.34034874728692 315.0847155697778 88.75183790147543 Z " class="even" fill="#ffffff"></path><path d="M 360.5496031746032 92 C 360.8824404761905 92.275 360.93046679197994 93.175 360.656328320802 94 C 360.3091628886429 95.04476938351839 360.12550503410995 94.89302584469117 360.05116959064327 93.5 C 359.9924707602339 92.4 360.2167658730159 91.725 360.5496031746032 92 Z " class="even" fill="#ffffff"></path><path d="M 249.75 97.00559132455587 C 250.1625 97.00866655306159 250.3875 98.58366655306159 250.25 100.50559132455587 C 250.1125 102.42751609605014 249.775 104 249.5 104 C 249.225 104 249 102.425 249 100.5 C 249 98.575 249.3375 97.00251609605014 249.75 97.00559132455587 Z " class="even" fill="#ffffff"></path><path d="M 348.25 99.03040868590074 C 350.47841511091553 99.00576753129555 350.9775595615279 99.42675127288729 350.881685211574 101.25 C 350.81661207793974 102.4875 350.41985373273144 104.85 350 106.5 L 349.23662957685195 109.5 L 349.118314788426 105.25 C 349.0369083128848 102.32578802571642 348.4540872835285 100.69753586963024 347.25 100.03040868590074 C 345.77463871608325 99.21298155101847 345.9315751252737 99.05604514182802 348.25 99.03040868590074 Z " class="even" fill="#ffffff"></path><path d="M 344.5 99.93481052890778 C 345.05 99.93481052890778 344.6910731759926 100.73697815990353 343.7023848355391 101.71740526445389 C 342.1191304038563 103.28743041263085 341.97310547777687 104.75209652136232 342.47782930194074 114 C 342.95364908341577 122.71830336045109 342.7310368577772 125.43326966833514 341.16591776923656 130 L 339.2809466056699 135.5 L 342.89047330283495 135.76551596912185 C 344.87571298627574 135.91154975213885 347.1170130907563 135.46154975213886 347.87114020168065 134.76551596912185 C 348.62526731260493 134.06948218610484 350.0678791106826 131.925 351.0769441974087 130 C 352.0860092841348 128.075 352.9314961933785 127.0625 352.95580399572805 127.75 C 352.98011179807764 128.4375 352.3139433729476 130.6875 351.4754297176614 132.75 C 350.6369160623752 134.8125 349.96191606237517 136.6125 349.9754297176614 136.75 C 349.98894337294763 136.8875 351.8 137.9 354 139 C 356.2 140.1 358.45 141 359 141 C 359.55 141 360.50941280947194 139.3125 361.13202846549314 137.25 C 362.03618187105246 134.25486747974983 361.9090852055573 131.48702005400045 360.5006428138489 123.5 C 359.1404390069478 115.78653216687891 358.99592366527446 112.98553026245224 359.8686143483558 111.25 L 361 109 L 358.25 108.98333333333333 C 356.7375 108.97416666666666 354.93 109.53666666666666 354.23333333333335 110.23333333333333 C 353.53666666666663 110.93 352.937618170465 113.3 352.90211445288514 115.5 L 352.8375622391037 119.5 L 351.4638850420432 116.5 C 350.7083625836599 114.85 350.0623762206596 112.825 350.0283597909314 112 C 349.9943433612033 111.175 351.99904659608217 109.4875 354.4832558684401 108.25 C 358.0511207138157 106.47268083640093 359.52520092933435 106.21008037173374 361.5 107 C 362.875 107.55 364.01466763099575 108.3375 364.0325947355461 108.75 C 364.05052184009645 109.1625 363.12267328418193 110.4 361.9707090557361 111.5 C 360.675091666029 112.73717307663328 359.9951860371658 114.4535336542084 360.18811432019004 116 L 360.5 118.5 L 364.75 118.25 C 368.2176616915423 118.04601990049751 369.0051133222775 118.32213930348259 369.02777777777777 119.75 C 369.04305555555555 120.7125 368.7055555555555 121.8317398176032 368.27777777777777 122.23719959467377 C 367.85 122.64265937174436 367.05 122.23756257999946 366.5 121.33698450190735 C 365.87533717871366 120.3141524236353 364.8431599372511 119.94361971294316 363.75 120.34978490723358 C 362.2152010028259 120.92004174856235 362.07380247427716 121.95303301251474 362.6001567292392 128.75 C 363.0994781506848 135.19788407373105 362.8894594528995 137.046006340515 361.3501567292392 139.74974839307603 L 359.5 142.99949678615206 L 362.80396126526387 146.24974839307603 L 366.1079225305278 149.5 L 367.58252340863675 147.5 C 368.6963599678773 145.98930435919857 368.9330737270538 143.66510865300535 368.550075627318 138 L 368.0430269678903 130.5 L 369.647468740657 135.5 L 371.2519105134237 140.5 L 368.6088025031339 148.5 C 367.1550930974746 152.9 365.9734132319542 157.0625 365.9828472464221 157.75 C 365.99228126088997 158.4375 365.4375 159.00956417090526 364.75 159.02125371312283 C 364.0625 159.0329432553404 362.15 157.6799884994137 360.5 156.0146875888413 C 358.85 154.3493866782689 357.1432857744541 153.32732250736362 356.7073017210091 153.74343387571847 C 356.2713176675642 154.1595452440733 356.588184138808 157.2 357.4114494348844 160.5 C 358.2347147309607 163.8 360.271822961526 173.025 361.9383566139184 181 C 363.6048902663108 188.975 364.72880913380453 195.725 364.43595409723775 196 C 364.143099060671 196.275 360.4377050556516 195.65215366589243 356.20174519719455 194.61589703531655 C 350.71448335313534 193.27353033222795 345.2652866869905 192.7703527057598 337.25 192.86589703531655 C 331.0625 192.93965366589245 325.4375 193.2223167261745 324.75 193.49403716927668 C 324.0625 193.76575761237888 321.7978911195458 196.57825761237888 319.7175358212129 199.74403716927668 C 317.63718052287993 202.9098167261745 314.7121805228799 209.1 313.2175358212129 213.5 L 310.5 221.5 L 310.5144467446383 236.5 C 310.52398648764466 246.40507887265412 310.93823459117334 252.17932281697946 311.7340380587373 253.5 C 312.7114375169266 255.122045160319 312.9439793851033 252.7598274123128 312.96456532687864 241 C 312.9818030242895 231.15287477494277 313.4914332792116 224.57467250692022 314.55275307183285 220.5 C 315.4122958472833 217.2 316.98955754153246 212.5875 318.05777905905325 210.25 L 320 206 L 326.75 203.9587052123663 C 330.4625 202.8359930791678 337.55 201.41048246740505 342.5 200.79090385289354 C 348.38890842096623 200.05380451542942 353.3661544415649 199.98165995668572 356.8985520989712 200.58219864052722 C 359.86775575340533 201.08698938823724 362.7409539581706 202.175 363.2834369984496 203 C 363.8259200387285 203.825 364.01588065967303 205.625 363.70557171165956 207 C 363.3952627636461 208.375 362.3220645588808 210.500004835737 361.3206868121812 211.72223296830447 C 359.84215345499484 213.52685172486107 357.8086706212452 214.14567777009205 350.5 215.0151660167324 C 345.55 215.6040510608003 337.49109659645694 217.07904622506328 332.5913257699043 218.29293304842793 L 323.6826515398086 220.5 L 322.1986703679073 224 C 321.38248072336154 225.925 320.5348714096502 229.525 320.31509411521535 232 C 320.00321610088497 235.5121830371631 320.30892468521364 236.76117850594366 321.7077495172124 237.68979863776707 C 322.7352383100327 238.37190461444789 325.20681876738087 238.66138487949772 327.5 238.36820754814963 C 329.7 238.08694319808814 335.55 237.00188225813832 340.5 235.9569610149278 C 345.45 234.91203977171725 350.01996547661497 233.4817557620451 350.65547883692216 232.7785521045452 C 351.29099219722934 232.07534844704534 352.52849219722935 228.9125 353.40547883692216 225.75 C 354.28246547661496 222.5875 355.3375 219.8212307630214 355.75 219.60273502893642 C 356.1625 219.38423929485145 356.725 224.67173929485145 357 231.35273502893642 C 357.275 238.0337307630214 357.4969046801685 248.225 357.4931215114855 254 C 357.48700600877135 263.3353035864622 357.18970780952094 265.1100790737579 354.81291141051395 270 C 353.3425790236625 273.025 350.47361294392664 277.975 348.4374312333232 281 C 346.4012495227197 284.025 343.8948440681569 287.5125 342.8676413342948 288.75 L 341 291 L 337.5418922607157 284.25 C 335.63993300410937 280.5375 331.54574659450253 274.8 328.4437002393673 271.5 C 325.341653884232 268.2 322.3978023669099 264.4875 321.90180797865156 263.25 C 321.4058135903932 262.0125 321.0200364079814 259.7625 321.04452535106986 258.25 C 321.0690142941583 256.7375 320.3835959297673 254.825 319.5213734302009 254 C 318.6591509306346 253.175 317.7182871033868 252.725 317.4305649252058 253 C 317.1428427470248 253.275 317.33833838733017 255.075 317.86499968143994 257 C 318.3916609755497 258.925 318.6374883948161 261.5125 318.4112828353652 262.75 C 318.18507727591435 263.9875 317.4375 264.99288773392954 316.75 264.9841949642879 C 316.0625 264.97550219464625 313.7 266.7826144607167 311.5 269 C 309.3 271.2173855392833 306.825 273.0271704506184 306 273.0217442474114 C 305.175 273.01631804420435 301.125 270.07064276204756 297 266.4757991759519 C 292.875 262.8809555898563 288.9375 259.9532829445916 288.25 259.96985996425263 C 287.5625 259.9864369839137 286.5636839086555 260.7875 286.0304086859011 261.75 C 285.4971334631467 262.7125 285.03968177418574 263.05 285.01384937709895 262.5 C 284.98801698001216 261.95 285.42433307135667 260.0375 285.98344069119787 258.25 C 286.8337667092024 255.53145762417824 287.49057626847224 255 290 255 C 291.65 255 293.225 254.55 293.5 254 C 293.775 253.45 293.4375 252.53565081278248 292.75 251.96811291729438 C 292.0625 251.40057502180628 290.3897666711341 251.0630750218063 289.03281482474245 251.21811291729438 C 287.4017223336684 251.40447262330383 285.622574730163 252.9402623456948 283.78281482474245 255.75 C 281.7139012742289 258.9097081169411 280.03797775024213 260.2459115188766 277.25 260.95857262762837 C 275.1875 261.485787572824 270.9125 263.060787572824 267.75 264.45857262762837 C 264.5875 265.85635768243276 259.6375 268.7433115060139 256.75 270.8740255689199 C 253.8625 273.0047396318258 250.15 276.63219866873055 248.5 278.93504565093036 C 246.85 281.2378926331302 244.75545588486003 284.10708112711626 243.84545752191116 285.3110200820105 L 242.19091504382234 287.5 L 240.01247904415675 285.5 C 238.8143392443407 284.4 236.3398757557606 281.25 234.51367129175654 278.5 C 232.68746682775247 275.75 230.1850096585815 271.025 228.95265536026542 268 C 227.4217939223341 264.24226908116435 226.44845526694465 259.0154618376713 225.88001711941206 251.5 C 225.42242038525876 245.45 224.78132736326265 240.275 224.45536595942067 240 C 224.1294045555787 239.725 223.00360549819777 240.625 221.95359027635192 242 L 220.04447169117765 244.5 L 220.01741409327047 242 C 220.00253241442155 240.625 221.9619955777315 233.65 224.3717766784037 226.5 C 226.78155777907588 219.35 229.69617122867095 210.35 230.84869545528161 206.5 C 232.00121968189228 202.65 233.38075399460058 195.675 233.9143272613001 191 C 234.4479005279996 186.325 235.13545686694778 178.1125 235.4422302367405 172.75 C 235.8672465802489 165.32057369874178 235.70249055144336 162.99881656302153 234.75 162.99502773363923 C 234.0625 162.9922929871408 228.775 167.2710945547136 223 172.50347566157882 C 217.225 177.735856768444 211.15 182.66347319644555 209.5 183.4537343904711 C 207.85 184.24399558449667 204.13015454996588 185.47769401692386 201.23367677770193 186.19528646253153 C 198.337199005438 186.9128789081392 195.9721765648461 187.95 195.97807135416437 188.5 C 195.98396614348263 189.05 198.46356752649837 193.55 201.48829664975486 198.5 C 205.72635716959013 205.43562918143184 206.98962358475043 208.41749814158584 206.99573631814184 211.5 C 207.00009901249817 213.7 206.31256694226536 221.125 205.46788727318005 228 C 204.62320760409474 234.875 202.3446679642372 247.7 200.4044658512744 256.5 C 198.46426373831162 265.3 195.94108224543695 276.1 194.79739586710843 280.5 C 193.65370948877992 284.9 192.53452896288175 290.075 192.3103280317791 292 C 192.08612710067646 293.925 191.69958473080237 296.5125 191.45134498761445 297.75 C 191.07359748342 299.6331091687309 190.34774963329943 300 187 300 C 184.8 300 181.3517213108521 299.2125 179.33715846856023 298.25 C 177.32259562626834 297.2875 175.18509562626835 295.48704674222046 174.58715846856023 294.24899276048995 C 173.7422181815779 292.49950843234984 173.889898832617 291.1070126015748 175.25 287.99899276048995 C 176.68581856539487 284.71794816140925 176.79636861065887 283.4165201928762 175.86576706292385 280.75 C 175.2086816744865 278.86720552047586 175.02419322087752 275.81728551326046 175.42721743358902 273.5 C 175.80984325284672 271.3 177.332748074531 267.3173302575617 178.81145037066517 264.64962279458155 C 180.29015266679932 261.9819153316014 183.4125 258.0444153316014 185.75 255.89962279458155 C 189.42496196503274 252.52763092444934 189.9388786777255 251.56026503208386 189.54826358628378 248.75 C 189.29980855873987 246.9625 188.81636318950174 241.45 188.47394054353236 236.5 C 188.13151789756301 231.55 186.7437668844408 221.425 185.39004940326072 214 C 183.255816979545 202.29395648176498 183.08140173708077 199.76912884076242 184.0775282818172 195 C 185.01423804776485 190.51533930722957 185.57463658915995 189.54615178669226 187.1131558358051 189.75 C 188.15092012611228 189.8875 189.3375 189.2857932564789 189.75 188.41287390328648 C 190.1968175086945 187.46733293192972 189.99200136360506 186.5577854580132 189.24333449911433 186.16287390328648 C 188.350414808975 185.6918709515011 188.78459456145086 184.74150922836097 190.74333449911433 182.87957343480284 C 192.25950052460144 181.4383388239444 197.1 178.414471626994 201.5 176.1598685526908 C 205.9 173.9052654783876 212.5955082984744 169.45945743272634 216.37890732994316 166.28029511788796 C 220.1623063614119 163.10113280304958 224.2123063614119 159.87919312863158 225.37890732994316 159.12042917473687 C 226.54550829847443 158.36166522084216 225.025 160.09239355452047 222 162.96649213846644 C 218.975 165.84059072241243 214.25 169.70746410805774 211.5 171.5595441065671 C 208.75 173.4116241050765 203.575 176.40589577139818 200 178.21348114283754 C 195.821029550057 180.32644501780098 193.36404916297658 182.2141629384791 193.11927221450907 183.5 L 192.7385444290181 185.5 L 198.61927221450907 184.90514369468622 C 202.31983161080655 184.53081909229485 206.16828972692392 183.32824383745722 209 181.66134943075608 C 211.475 180.20443355351708 220.61977223856894 172.5971188909083 229.32171608570874 164.75620573606986 C 238.02365993284855 156.91529258123143 249.04865993284855 147.89666223993308 253.82171608570874 144.7148049776291 C 258.5947722385689 141.5329477153251 264.8625 138.04544771532508 267.75 136.9648049776291 C 270.6375 135.8841622399331 273.9 135 275 135 C 276.1 135 281.6125 136.54012902509714 287.25 138.4225089446603 C 292.8875 140.30488886422347 300.425 142.95965893500446 304 144.32199799084026 C 307.575 145.6843370466761 312.3 146.9043730939493 314.5 147.03318920700298 C 316.7 147.16200532005666 319.175 147.0139841427408 320 146.70425325741223 C 320.825 146.39452237208363 324.425 145.45893676941054 328 144.62517414036094 C 331.575 143.79141151131134 336.075 142.8137467955516 338 142.45258588311708 C 340.5251444520873 141.9788282341068 342.6141206261859 142.35400644761657 345.5 143.7995790351752 C 347.7 144.90158618124173 352.65 148.1002770573942 356.5 150.90778098218078 C 360.35 153.71528490696733 363.8375 156.00955851884387 364.25 156.0061667863509 C 364.6625 156.0027750538579 365 154.875 365 153.5 C 365 152.09023179072207 363.5826986720613 149.41812601161035 361.75 147.3726200202299 C 359.9625 145.37756103135635 356.475 142.59499736746926 354 141.18914521159192 L 349.5 138.63305038272404 L 337.5 139.27333307957173 C 330.9 139.62548856283797 322.9125 140.38305222672508 319.75 140.9568078882097 C 315.00982907286726 141.81679204816146 313.51703826949824 141.7271332642911 311.25 140.44628781990673 L 308.5 138.89257563981346 L 313.75 139.44628781990673 C 318.34501355095597 139.9309192429273 319.2807084781617 139.70860329426657 321.25 137.66432922798114 C 322.4875 136.37971030337076 324.3099912422563 132.44221030337076 325.2999805383472 128.91432922798114 C 326.2899698344382 125.38644815259151 327.33967342009936 122.725 327.63265517314983 123 C 327.92563692620035 123.275 327.2109133066038 126.875 326.0443804629354 131 C 324.877847619267 135.125 324.0531440336058 138.6270533440811 324.2117058281328 138.7823407646247 C 324.37026762265975 138.9376281851683 326.075 138.80690860191524 328 138.4918528018401 C 329.925 138.17679700176498 332.85 137.1231332749201 334.5 136.15037785329588 C 336.15 135.17762243167167 338.2875 132.72084201492473 339.25 130.69086581608047 C 340.33365205360377 128.40537191826812 341.00191374643595 124.62018590572784 341.0050259872204 120.75 C 341.0077902801916 117.3125 340.3327902801916 111.9125 339.5050259872204 108.75 C 338.6772616942492 105.5875 338.00689074853267 102.6625 338.01531277451704 102.25 C 338.0237348005015 101.8375 338.36123480050145 102.07542902428183 338.76531277451704 102.77873116507074 C 339.32181607954425 103.74733126443321 339.98506061974507 103.55752832071661 341.5 101.99613642952463 C 342.6 100.86240718418536 343.95 99.93481052890778 344.5 99.93481052890778 Z " class="even" fill="#ffffff"></path><path d="M 248.62986275729727 105.5 C 248.8894451685476 106.05 248.31399944088443 109.2 247.35109447360128 112.5 L 245.60035816945012 118.5 L 245.05017908472507 114.30505207464122 C 244.74758058812628 111.99783071569388 243.711597579468 109.52283071569389 242.74799462103996 108.80505207464122 C 241.20484189713426 107.65557234814814 241.41345549543385 107.52980194261423 244.49799462103996 107.75 C 247.23794766494714 107.94559886032505 248.01717930726576 107.61919202227539 248.07894736842104 106.25 C 248.12236842105264 105.2875 248.37028034604694 104.95 248.62986275729727 105.5 Z " class="even" fill="#ffffff"></path><path d="M 237 106.01342544956177 C 238.17585089648225 106.0505760057295 238.12182604589597 106.2703454752974 236.75 107.03040868590074 C 235.59552628623956 107.6700473631682 234.97224030948092 109.27612775622764 234.9184260048114 111.75 L 234.8368520096228 115.5 L 233.338552224355 112 L 231.8402524390872 108.5 L 233.6701262195436 107.23301676366101 C 234.67655679879462 106.53617598367457 236.175 105.9873598923299 237 106.01342544956177 Z " class="even" fill="#ffffff"></path><path d="M 328.5 114 C 328.775 114 328.96837163182533 115.2375 328.92971473738965 116.75 C 328.8683557406014 119.15074853391545 328.7572470205175 119.2459989337567 328.0548465982348 117.5 C 327.61232601613534 116.4 327.41895438431004 115.1625 327.62513186084516 114.75 C 327.83130933738033 114.3375 328.225 114 328.5 114 Z " class="even" fill="#ffffff"></path><path d="M 233.5 119 C 233.775 119 233.9856884826583 122.9375 233.96819662812953 127.75 L 233.93639325625907 136.5 L 232.4501188302848 134.5 C 231.63266789599894 133.4 230.8032317232561 132.05 230.6069273353007 131.5 C 230.4106229473453 130.95 228.36118801449425 132.3 226.0526274845206 134.5 C 223.74406695454692 136.7 219.93230842384966 141.425 217.58205297186004 145 C 215.23179751987038 148.575 211.70748718469397 153.975 209.75025222702354 157 C 207.7930172693531 160.025 204.68602349013491 163.95734120293994 202.84582160653866 165.7385360065332 C 201.00561972294238 167.51973081012645 199.275 168.76219452726343 199 168.4995664890598 C 198.725 168.23693845085614 200.77189373149284 165.65459724791623 203.54865273665078 162.7610304825266 C 206.32541174180872 159.86746371713696 210.12214686940575 154.8 211.98584190908866 151.5 C 213.84953694877157 148.2 217.00440807135615 143.25 218.9966666259433 140.5 C 220.98892518053046 137.75 224.72621940437244 133.925 227.30176490114772 132 C 229.877310397923 130.075 232.20690093636395 127.6 232.47863276434987 126.5 C 232.75036459233576 125.4 232.9788352408967 123.2625 232.98634531670757 121.75 C 232.9938553925184 120.2375 233.225 119 233.5 119 Z " class="even" fill="#ffffff"></path><path d="M 283.19045592768566 125.89420216283926 C 284.46948895962174 127.77392237921514 287.7309837095804 130.39051551561897 290.5 131.75841606356732 C 293.962839829926 133.46906706883652 296.42229610204436 134.05114761064982 298.5 133.65177940053593 C 300.7017273441417 133.22857188311542 302.0321817705722 133.605990095125 303.5 135.070160235354 C 305.0415205047497 136.6078494725868 305.15614037856227 137.05510357519134 304 137.0211923196149 C 303.175 136.9969938863024 298 135.6266905760755 292.5 133.97607385244402 C 284.85658279389736 131.68219162224668 280.5558191950347 130.9779038577967 274.25 130.98747626837525 L 266 131 L 257.5 135 C 252.825 137.2 249.00689074853267 138.6625 249.01531277451704 138.25 C 249.02373480050144 137.8375 249.36123480050145 136.9940343915823 249.76531277451704 136.375631981294 C 250.16939074853266 135.7572295710057 251.85 134.9617441033245 253.5 134.60788649755798 C 255.14999999999998 134.25402889179148 257.9625 133.0724945002092 259.75 131.982254516264 C 262.3007790705633 130.4264719523822 263.016985123792 129.30077907056332 263.07894736842104 126.75 L 263.1578947368421 123.5 L 264.07894736842104 126.25 L 265 129 L 273.5 129 L 282 129 L 281.44045592768566 125.75 L 280.8809118553714 122.5 L 283.19045592768566 125.89420216283926 Z " class="even" fill="#ffffff"></path><path d="M 246.33676754004296 127 C 246.55254524262213 127.275 247.26487004206496 128.625 247.9197115388048 130 L 249.1103324419681 132.5 L 247.53818298464506 130.5 C 246.6735007831174 129.4 245.96117598367456 128.05 245.95523898588323 127.5 C 245.94930198809192 126.95 246.12098983746378 126.725 246.33676754004296 127 Z " class="even" fill="#ffffff"></path><path d="M 237.18866830447865 140.68483879812362 L 240.5 143.86967759624724 L 243.46843941497855 141.68483879812362 C 245.10108109321678 140.48317745915563 246.16975777951197 139.95 245.84327649563454 140.5 C 245.5167952117571 141.05 242.38099747501676 143.95080394330674 238.874837080656 146.9462309851261 C 235.3686766862952 149.94165802694548 233.95543594582887 150.84165802694545 235.73430210184193 148.9462309851261 C 237.51316825785503 147.05080394330676 238.975668257855 144.9375 238.98430210184193 144.25 C 238.9929359458289 143.5625 238.2125 142.61185350910998 237.25 142.13745224246662 C 236.2875 141.66305097582324 235.1349007370154 140.42555097582326 234.68866830447865 139.38745224246662 C 234.16716247878747 138.17424025334572 235.0602185230355 138.63769581544798 237.18866830447865 140.68483879812362 Z " class="even" fill="#ffffff"></path><path d="M 231.75 152.96740526445387 C 231.8875 152.98533236900425 232.01466763099575 153.1125 232.03259473554613 153.25 C 232.05052184009648 153.3875 231.03802184009646 154.4 229.78259473554613 155.5 L 227.5 157.5 L 229.5 155.21740526445387 C 230.6 153.96197815990354 231.6125 152.94947815990352 231.75 152.96740526445387 Z " class="even" fill="#ffffff"></path><path d="M 302.13142162199534 158.75 C 301.4147318663953 158.2749186454895 300.76717164376544 159.00803503346148 300.3648256673715 160.75 C 300.0154797844259 162.2625 298.3279797844259 166.81506032147655 296.6148256673715 170.86680071439233 L 293.5 178.23360142878465 L 296.5 183.7979716805471 C 298.15 186.85837531901646 301.63548787101627 191.6433149975399 304.2455286022584 194.43117096615478 L 308.9910572045168 199.5 L 313.0484466770821 195.5 C 315.28001088699295 193.3 318.50851646023773 189.25 320.22290350651485 186.5 C 322.9045303759897 182.1984778279387 323.23951496477935 180.94121773764905 322.6208650121669 177.5 C 322.22535679399846 175.3 321.34312361278995 169.9 320.6603468317037 165.5 C 319.6272098447371 158.84218317233862 319.2390503847212 157.83554579308466 318.34674631567555 159.5 C 317.75704281294634 160.6 316.97217859345363 165.775 316.6026036056918 171 C 316.1322164727086 177.6502681491549 315.3666761397938 181.3999153213195 314.0505623809943 183.5 C 313.01651469517253 185.15 311.23211865161267 187.2875 310.0852378397501 188.25 L 308 190 L 304.51094689112114 185.25 C 302.078309726141 181.93820560390705 301.15412978669855 179.74304968215418 301.45863316043756 178 C 301.698839818445 176.625 302.20305344733833 171.9 302.57910789131176 167.5 C 303.0523980972593 161.96229943684352 302.9146058911567 159.26915942779593 302.13142162199534 158.75 Z " class="odd" fill="#000000"></path><path d="M 311 162 C 310.45 162 309.4877822391263 163.2375 308.86173830916965 164.75 C 308.235694379213 166.2625 307.673194379213 170.65 307.61173830916965 174.5 L 307.5 181.5 L 309.5 181.5 C 311.17002308740274 181.5 311.61917273414747 180.59256349035758 312.2223095289272 176 C 312.61957976983723 172.975 312.73207976983724 168.5875 312.4723095289272 166.25 C 312.21253928801724 163.9125 311.55 162 311 162 Z " class="odd" fill="#000000"></path><path d="M 262.5 186.12937422855111 C 258.65 186.1787406369035 253.7 186.57231144924148 251.5 187.00397603374657 C 249.3 187.43564061825165 245.8125 188.51133606795622 243.75 189.39441036642336 C 241.6875 190.27748466489052 240 191.3375 240 191.75 C 240 192.1625 244.1625 192.5416184675538 249.25 192.5924854834529 C 254.3375 192.643352499352 261.875 193.2549302683318 266 193.9515471922969 C 270.125 194.648164116262 277.6625 196.5190456487082 282.75 198.109061708844 C 289.7700503735719 200.30306521487677 292.4852320746483 201.6629579970462 294.01277940869284 203.75 C 295.1198080834739 205.2625 296.2448080834739 206.1625 296.51277940869284 205.75 C 296.7807507339118 205.3375 296.2125 202.72620959510897 295.25 199.9471324335755 C 294.2875 197.168055272042 292.4875 193.793055272042 291.25 192.4471324335755 C 290.0125 191.10120959510897 288.55 190 288 190 C 287.45 190 286.84416262194895 190.1125 286.65369471544216 190.25 C 286.46322680893536 190.3875 285.67572680893534 189.96070126786404 284.90369471544216 189.30155837303124 C 284.131662621949 188.64241547819842 280.35 187.63882933075098 276.5 187.07136693425915 C 272.65 186.5039045377673 266.35 186.08000782019872 262.5 186.12937422855111 Z " class="odd" fill="#000000"></path><path d="M 192 197 C 191.45 197 190.8222887393046 197.3375 190.60508608734358 197.75 C 190.38788343538252 198.1625 189.88424618496526 202.775 189.4858921975274 208 L 188.76161222036768 217.5 L 191.9063182832507 223.5 C 193.63590661783635 226.8 195.03954386825362 230.7375 195.02551217306686 232.25 C 195.0114804778801 233.7625 195.45 235 196 235 C 196.55 235 197.27293567377032 233.7625 197.60652371948964 232.25 C 198.0338299610438 230.31257838479456 197.30003207526323 227.57936018139466 195.1231396870596 223 C 193.1290227117699 218.80513032101678 192.02131646687954 214.9041405469884 191.99963273123097 212 C 191.98115316908104 209.525 192.59507339504918 206.6 193.36389990004903 205.5 L 194.76176627277601 203.5 L 195.47867655253708 206 C 195.8729772064057 207.375 195.84736291685482 211.425 195.42175590909073 215 C 194.77438802255995 220.43773986830186 194.88097464589163 221.40529696549876 196.07396249294163 220.92050943465796 C 196.85828312182375 220.60178962371987 197.725 218.80178962371986 198 216.92050943465796 C 198.275 215.0392292455961 198.95 213.725 199.5 214 C 200.05 214.275 200.45250661149637 216.3 200.39445913665858 218.5 C 200.3364116618208 220.7 199.94040989029887 224.075 199.51445519994314 226 C 199.08850050958745 227.925 199.0234938980911 230.7375 199.3699960632846 232.25 C 199.71649822847806 233.7625 200.45 234.775 201 234.5 C 201.55 234.225 202.00593869584208 232.3125 202.01319710187127 230.25 C 202.02045550790046 228.1875 202.76512980342093 224.25 203.66802886969452 221.5 L 205.30966353564654 216.5 L 201.98443131521435 210.5 C 200.15555359397666 207.2 197.3858792984562 202.8125 195.8295995473911 200.75 C 194.273319796326 198.6875 192.55 197 192 197 Z " class="odd" fill="#000000"></path><path d="M 239.75 207.0054469673942 C 239.3375 207.0024511353274 239 207.225 239 207.5 C 239 207.775 239.86756351049567 209.2375 240.9279189122126 210.75 C 241.9882743139295 212.2625 243.584431805041 215.525 244.474935559127 218 C 245.36543931321302 220.475 247.31037580271735 223.74853775162288 248.79701664691441 225.27452833693968 C 250.28365749111148 226.80051892225651 253.525 228.71252002981515 256 229.52341968706995 C 258.475 230.33431934432474 263.9875 231.6732815927019 268.25 232.49889135013024 C 272.5125 233.3245011075586 278.475 234 281.5 234 C 286.0292605864438 234 287.01953674148444 233.69112836841393 287.11069096058503 232.25 C 287.1715709889068 231.2875 287.1247696636243 229.375 287.0066880155128 228 C 286.8886063674013 226.625 286.20655174513206 224.375 285.4910110771367 223 C 284.7754704091413 221.625 283.1347717344238 219.54423056744264 281.84501402220894 218.37606792765033 C 280.55525630999404 217.207905287858 276.575 215.29765951092318 273 214.1310773122396 C 269.425 212.96449511355604 260.65 210.88521568144077 253.5 209.51045635198346 C 246.35 208.1356970225262 240.1625 207.008442799461 239.75 207.0054469673942 Z " class="odd" fill="#000000"></path><path d="M 369 209 C 369.55 209 369.9956039879332 210.4625 369.990231084296 212.25 C 369.9848581806588 214.0375 368.8598581806588 217.8625 367.490231084296 220.75 C 366.1206039879332 223.6375 364.6625 226.00446049813772 364.25 226.00991221808385 C 363.8375 226.01536393802996 363.8275419988993 223.20286393802996 364.22787110866506 219.75991221808385 C 364.62820021843083 216.31696049813772 365.6407002184308 212.4875 366.47787110866506 211.25 C 367.3150419988993 210.0125 368.45 209 369 209 Z " class="even" fill="#ffffff"></path><path d="M 169.57986869475414 214.5 C 170.22494915987815 216.15 171.03337525747284 218.5125 171.37637113385347 219.75 C 171.92292432974483 221.72191752581034 171.62922336774713 222 169 222 C 167.17889192918068 222 165.6189855417349 222.68768695868872 165.03040868590074 223.75 L 164.0608173718015 225.5 L 164.03040868590074 223.75 C 164.01368390865534 222.7875 164.99157390240532 219.6375 166.2034975609007 216.75 L 168.40699512180137 211.5 L 169.57986869475414 214.5 Z " class="even" fill="#ffffff"></path><path d="M 251.25 213.01531277451704 C 253.5875 213.02373480050144 256.175 213.46164929176794 257 213.9884560884426 C 257.9205644651089 214.57628592722634 258.6537158345021 216.9846854788106 258.897928221293 220.22314331392556 C 259.1456435681188 223.50805329063832 258.8625280467207 225.78311552139814 258.147928221293 226.25 C 257.51656769958186 226.6625 255.38947152087997 226.2125 253.42104782417772 225.25 C 250.9648595718924 224.048997798703 249.23943791882584 222.16671963172132 247.92104782417772 219.25 C 246.86447152087996 216.9125 246.225 214.55 246.5 214 C 246.775 213.45 248.9125 213.00689074853267 251.25 213.01531277451704 Z " class="even" fill="#ffffff"></path><path d="M 265 214.91094929786024 C 265.275 214.91094929786024 266.175 215.62820581948705 267 216.50485267925313 C 268.3362640056635 217.92476982396025 268.3089746732741 218.28439141344302 266.75 219.799378030323 L 265 221.5 L 263.25 219.799378030323 C 261.6910253267259 218.28439141344302 261.6637359943365 217.92476982396025 263 216.50485267925313 C 263.825 215.62820581948705 264.725 214.91094929786024 265 214.91094929786024 Z " class="even" fill="#ffffff"></path><path d="M 278.75 219.96212121212122 C 279.1625 219.94128787878788 280.75454545454545 221.1787878787879 282.28787878787875 222.71212121212122 C 284.02316644707946 224.4474088713219 285.06145606585704 226.53828961877758 285.03787878787875 228.25 L 285 231 L 280.5 231 L 276 231 L 276.553317588234 227.25 C 276.8576422617627 225.1875 277.3076422617627 222.7125 277.553317588234 221.75 C 277.7989929147053 220.7875 278.3375 219.98295454545456 278.75 219.96212121212122 Z " class="even" fill="#ffffff"></path><path d="M 348.25 220.25 L 351.5 220.5 L 351.2652655062665 224 C 351.136161534713 225.925 350.46116153471297 228.11540528878822 349.7652655062665 228.86756730841824 C 349.0693694778199 229.6197293280483 347.7125 230.6322293280483 346.75 231.11756730841824 C 345.17972970093535 231.9093717921408 345 231.38378388250732 345 226 L 345 220 L 348.25 220.25 Z " class="even" fill="#ffffff"></path><path d="M 335 222 C 335.55 222 336.225 222.9 336.5 224 L 337 226 L 336.5 227 C 336.225 227.55 335.325 228 334.5 228 C 333.675 228 332.8358073919813 227.4375 332.63512753773625 226.75 C 332.4344476834912 226.0625 332.6594476834912 224.7125 333.13512753773625 223.75 C 333.6108073919813 222.7875 334.45 222 335 222 Z " class="even" fill="#ffffff"></path><path d="M 328.1677333915845 224.68571428571428 C 328.53498675695596 225.13357142857143 329.09748675695596 227.6375 329.4177333915845 230.25 L 330 235 L 326 235 C 323.244545468795 235 322.1295812173443 234.61107954100157 322.4164772460094 233.75 C 322.64553973131456 233.0625 323.09553973131455 231.2625 323.4164772460094 229.75 C 323.7374147607042 228.2375 324.7875 226.29607142857142 325.75 225.43571428571428 C 326.7125 224.57535714285714 327.800480026213 224.23785714285714 328.1677333915845 224.68571428571428 Z " class="even" fill="#ffffff"></path><path d="M 173.75 232.96740526445387 C 174.5251616452224 232.9876182155191 174.99343714298826 234.4245150643328 174.98272344434238 236.75 C 174.9707837970523 239.3415858591926 174.27573531256786 241.12775590074745 172.73272344434238 242.53216150845856 C 171.50472554995406 243.64985033811075 169.2625 245.33735033811075 167.75 246.28216150845856 C 166.2375 247.22697267880633 164.7625 247.6625 164.47222222222223 247.25 C 164.18194444444444 246.8375 163.95694444444445 245.7125 163.97222222222223 244.75 C 163.98749999999998 243.7875 164.45 243 165 243 C 165.55 243 166.72926507451587 241.5375 167.6205890544797 239.75 C 168.51191303444352 237.9625 169.97441303444353 235.69783236900426 170.8705890544797 234.71740526445387 C 171.76676507451586 233.73697815990352 173.0625 232.94947815990352 173.75 232.96740526445387 Z " class="even" fill="#ffffff"></path><path d="M 278.25 236.1498320911797 C 277.2875 236.2322397413285 275.15 236.49186598072885 273.5 236.72677928984712 C 271.85 236.96169259896539 270.05 237.57676815793454 269.5 238.0936138653341 C 268.8590405569375 238.6959359321779 269.3976013923437 239.03174933087627 271 239.02892156862745 C 272.375 239.02649509803922 274.97291666666666 238.68149509803922 276.77314814814815 238.26225490196077 C 278.57337962962964 237.84301470588235 280.0358796296296 237.1625 280.02314814814815 236.75 C 280.0104166666667 236.3375 279.2125 236.06742444103085 278.25 236.1498320911797 Z " class="odd" fill="#000000"></path><path d="M 192.5 249 C 191.675 249 191 249.45 191 250 C 191 250.55 191.50363311192064 251.1125 192.119184693157 251.25 C 192.73473627439336 251.3875 190.4689957181282 254.2 187.08420567923451 257.5 C 182.75148012537056 261.7241894367026 180.34845780145878 265.0538342428852 178.96502098607752 268.75 C 177.8842594437349 271.6375 176.9925 275.0125 176.98333333333335 276.25 C 176.9741666666667 277.4875 177.5366666666667 279.04715981163855 178.23333333333335 279.7159106925301 C 179.09589034608734 280.54390460941784 180.977768570667 280.70342157806755 184.13201057284328 280.2159106925301 C 187.62514791844782 279.67602108371614 189.16752884800863 279.8688052550816 190.40516249371092 281 C 191.30779023512432 281.825 192.26240196340802 282.275 192.52652188989694 282 C 192.79064181638586 281.725 193.44448796655814 279.7 193.97951333472423 277.5 C 194.5145387028903 275.3 194.97768984782286 271.025 195.00873810124102 268 C 195.05281137881866 263.70598503958405 194.61235536090246 262.0614599856058 193 260.5 C 191.86414579089927 259.4 190.94947815990352 258.1625 190.96740526445387 257.75 C 190.98533236900425 257.3375 192.35 256.325 194 255.5 C 195.83333333333334 254.58333333333334 197 253.22222222222223 197 252 C 197 250.9 196.325 249.775 195.5 249.5 C 194.675 249.225 193.325 249 192.5 249 Z " class="odd" fill="#000000"></path><path d="M 279.25 264.0182981395651 C 280.2125 264.0082341628043 282.4625 264.8983178728031 284.25 265.9962619395625 C 286.0375 267.0942060063218 288.5125 267.9942060063218 289.75 267.9962619395625 C 290.9875 267.9983178728031 293.0125 268.5317821272963 294.25 269.1817380606585 C 295.4875 269.8316939940207 298.4125 271.8566939940207 300.75 273.6817380606585 C 303.0875 275.50678212729633 305.45 277 306 277 C 306.55 277 308.9125 275.18646322730706 311.25 272.9699182829046 C 313.5875 270.7533733385021 316.4 268.9404669981909 317.5 268.94123752665746 C 318.6 268.94200805512395 321.3 270.22519237646304 323.5 271.7927582407443 C 325.7 273.36032410502554 329.1988212706993 277.08573044533676 331.2751583793318 280.07143899699145 C 333.97934023921624 283.9599688848978 335.38030878467646 287.3439881660382 336.21352821988035 292 C 337.0973315121989 296.93867331229814 337.0976977866782 300.30153079350214 336.2150530667523 306 C 335.5011876516816 310.6088080441986 333.6938573625062 316.294818890608 331.5266832262038 320.75 C 329.4483639420519 325.022517219053 325.9465635993469 330.0534364006531 323 333 C 320.14285714285717 335.85714285714283 315.10714285714283 339.39285714285717 311.25 341.25 L 304.5 344.5 L 291 344.5 C 278.9900074081098 344.5 276.78672486904225 344.2240727022019 271.0374722195881 342 C 267.48308194036156 340.625 262.7164943185758 338.15 260.4450552822865 336.5 C 258.17361624599715 334.85 254.95280983502693 331.925 253.28770770235266 330 C 251.6226055696784 328.075 248.96419319146412 324.025 247.38012463965427 321 L 244.5 315.5 L 244.5767442610799 304.5 C 244.64418827034294 294.8330347904356 244.97773995991278 292.77289011430787 247.32916198610377 287.5 C 248.94491160886082 283.87680088128076 252.0835784793405 279.4296147461992 255.25241772502386 276.2735161070325 C 259.2281546511153 272.3137639930006 262.56012691160123 270.19747999455814 269 267.5418142465976 C 273.675 265.6139443644906 278.2875 264.028362116326 279.25 264.0182981395651 Z " class="even" fill="#ffffff"></path><path d="M 366 267 C 366.55 267 367.7437522066898 268.6875 368.6527826815328 270.75 C 369.5618131563759 272.8125 370.69142076147136 275.85 371.16302180396724 277.5 C 371.6346228464631 279.15 372.6908706397733 285.7875 373.5102391224344 292.25 C 374.8439906605229 302.76952753528343 374.8392221397506 304.2879829172741 373.46470367106826 306.75 C 372.62029069015585 308.2625 370.5952906901559 310.2875 368.96470367106826 311.25 C 367.3341166519807 312.2125 365.2125 312.99656090105884 364.25 312.9923575579085 L 362.5 312.98471511581704 L 363.67274236169123 303.7423575579085 C 364.31775066062147 298.6590609010588 364.88025066062147 294.3875 364.92274236169123 294.25 C 364.96523406276106 294.1125 366.125 293.55 367.5 293 L 370 292 L 370 286 C 370 282 369.1666666666667 277.8333333333333 367.5 273.5 C 366.125 269.925 365.45 267 366 267 Z " class="even" fill="#ffffff"></path><path d="M 254 288.97399755661843 C 253.725 289.00514295244704 252.825 289.4227893476347 252 289.90210065703536 C 250.81391439943923 290.591196708267 252.0438057589917 292.20988317175875 257.87687931048845 297.6367878825183 C 261.93416293125716 301.4115545471332 266.82905307613055 305.625 268.75441296576275 307 L 272.2550673105486 309.5 L 285.3775336552743 309.6032416658388 C 292.59489014487343 309.6600245820502 303.225 310.05066937996963 309 310.4713412167709 C 317.62908471066936 311.0999148817321 320.12363842977686 310.9538608500724 323 309.65165293843324 C 324.925 308.78015254854625 328.3976940082666 306.36450775062684 330.7170977961481 304.2835533875012 C 333.25240874060734 302.00888849330795 334.94731705556416 299.60269559796404 334.9670977961481 298.25 C 334.986809236459 296.9020434649547 334.3986376900302 296 333.5 296 C 332.675 296 331.55 297.35 331 299 C 330.43906537722 300.68280386834 328.133972146815 303.3266200260812 325.75 305.0214635334739 L 321.5 308.04292706694775 L 299 307.4314453436392 C 286.625 307.0951303958196 274.925 306.31863313928653 273 305.7058958846769 C 271.075 305.0931586300673 267.3625 302.8836668154929 264.75 300.79591407451153 C 262.1375 298.7081613335302 258.7625 295.1814081519456 257.25 292.9586847821014 C 255.7375 290.7359614122571 254.275 288.9428521607898 254 288.97399755661843 Z " class="odd" fill="#000000"></path><path d="M 199.5 309 C 200.325 309 201 309.225 201 309.5 C 201 309.775 201.3375 310.73353278476395 201.75 311.630072855031 C 202.42331823622843 313.0934832279288 202.22286781651616 313.11904381585265 199.7894580485647 311.880072855031 C 198.2986599752753 311.12103278476394 197.2861599752753 310.1625 197.5394580485647 309.75 C 197.79275612185413 309.3375 198.675 309 199.5 309 Z " class="even" fill="#ffffff"></path><path d="M 195.5 312 C 195.775 312 197.8 312.9 200 314 C 203.0768375632944 315.5384187816472 204.558887388502 317.21165069817613 206.42162101177533 321.25 C 207.75351256825175 324.1375 210.22851256825177 328.8625 211.92162101177533 331.75 L 215 337 L 210.20581962435182 344.75 C 207.56902041774535 349.0125 204.75652041774535 353.54899042080507 203.95581962435182 354.8310898240113 C 203.15511883095832 356.1131892272175 199.575 358.4860211939185 196 360.1040497500135 C 192.425 361.72207830610853 189.5 363.0463797324722 189.5 363.0469418085994 C 189.5 363.04750388472667 188.67441462796768 360.2246719180257 187.6653658399282 356.77398188259724 L 185.8307316798564 350.5 L 187.5031717949087 339.5 C 188.42301385818746 333.45 190.00371356003527 326.025 191.01583779901492 323 C 192.02796203799457 319.975 193.33844935825334 316.2625 193.92803184403442 314.75 C 194.5176143298155 313.2375 195.225 312 195.5 312 Z " class="even" fill="#ffffff"></path><path d="M 282.5 320.4420976945341 L 279.5 319.87334000295635 L 281 321.4621286783122 C 281.825 322.3359624497579 284.6375 323.4894609490927 287.25 324.025458676834 C 289.8625 324.5614564045753 295.0375 324.9863160913447 298.75 324.96959131409926 C 303.657823928285 324.94748161390794 305.02239879622203 324.67456664032056 303.75 323.96959131409926 C 302.7875 323.4363160913447 298.2875 322.55244246187516 293.75 322.00542769305594 C 289.2125 321.45841292423665 284.15 320.7549144249018 282.5 320.4420976945341 Z " class="odd" fill="#000000"></path><path d="M 216.5 340 C 216.775 340 218.2791306736434 341.9125 219.84251260809646 344.25 C 221.40589454254948 346.5875 224.6683945425495 349.9694027346255 227.09251260809646 351.76533941027884 C 229.5166306736434 353.5612760859322 231.8375 355.0237760859322 232.25 355.01533941027884 C 232.6625 355.0069027346255 233 354.1 233 353 C 233 351.9 233.3375 351.00669454309036 233.75 351.0148767624231 C 234.1625 351.0230589817558 236.24655807138396 352.4855589817558 238.381240158631 354.2648767624231 L 242.262480317262 357.5 L 240.881240158631 359.7533165959717 C 240.12155807138396 360.99264072375615 238.6 362.00185416159917 237.5 361.9960131245117 C 236.4 361.9901720874243 231.675 362.9435589443672 227 364.1146505843849 C 222.325 365.2857422244025 216.8125 367.0890287865595 214.75 368.12195405584487 C 212.6875 369.1548793251302 210.7420402917836 369.8875 210.42675620396358 369.75 C 210.11147211614352 369.6125 210.3694318243599 367.7 210.99999999999997 365.5 C 211.63056817564004 363.3 212.00102788385644 361.3946040226301 211.82324379603642 361.26578671695586 C 211.64545970821638 361.1369694112816 210.375 363.53230259821464 209 366.5887493545848 C 206.89200012181902 371.2745598201085 206.1863999025448 372.0417287415181 204.5 371.4814067716902 C 203.4 371.1159215947279 199.9125 370.6330884077949 196.75 370.40844413406126 C 193.5875 370.18379986032755 191 369.55 191 369 C 191 368.45 190.775 367.325 190.5 366.5 C 190.1629591164933 365.48887734947994 191.3851524901932 364.320461941318 194.25 362.9150044707384 C 197.11010133239645 361.51187541396627 198.6635174903063 361.1942365293655 199 361.94373563580916 C 199.321791230595 362.6605106028406 200.07302488162236 362.42349134608236 201.10773480321876 361.2787311650708 C 201.99198894498906 360.3004290242818 204.73709622280066 356.35 207.2079731983556 352.5 C 209.67885017391058 348.65 212.32736295549634 344.375 213.0935571574351 343 L 214.48663752459646 340.5 L 215.09312504602218 345 L 215.6996125674479 349.5 L 215.84980628372395 344.75 C 215.9324128276758 342.1375 216.225 340 216.5 340 Z " class="even" fill="#ffffff"></path><path d="M 243.5 359 C 243.775 359 244.675 359.225 245.5 359.5 C 246.325 359.775 247 360.45 247 361 C 247 361.55 246.1 362 245 362 C 243.88888888888889 362 243 361.3333333333333 243 360.5 C 243 359.675 243.225 359 243.5 359 Z " class="even" fill="#ffffff"></path><path d="M 243.75 364.1361820538333 L 252 364 L 260.17205860699096 369.25 L 268.34411721398186 374.5 L 265.42205860699096 375.2392288396194 C 263.8149263731459 375.6458047014101 248.55 379.41704389007873 231.5 383.6197603699941 C 214.45 387.8224768499095 200.05 391.44603818670373 199.5 391.6721188962034 C 198.95 391.8981996057031 197.9375 390.9394604170345 197.25 389.5415873658287 C 196.5625 388.1437143146229 196 386.1 196 385 C 196 383.9 197.52891721290112 381.7625 199.39759380644693 380.25 C 201.26627039999275 378.7375 204.07877039999275 376.82571742141977 205.64759380644693 376.0015942698217 C 207.21641721290112 375.1774711182236 208.725 374.267076998233 209 373.9784962253981 C 209.275 373.6899154525632 210.7375 372.6766980311434 212.25 371.7269019555764 C 213.7625 370.7771058800094 218.4875 368.90025838447485 222.75 367.55612974327744 C 227.0125 366.21200110207997 231.625 364.92328302630494 233 364.6923117971107 C 234.375 364.4613405679164 239.2125 364.2110821834416 243.75 364.1361820538333 Z " class="even" fill="#ffffff"></path><path d="M 196 371.29998900202906 C 197.375 371.60495686643367 199.85 372.3756025155301 201.5 373.01253488890995 L 204.5 374.1705937496007 L 199.5 376.08448236938784 C 196.75 377.13712111027075 194.3875 377.9987375166106 194.25 377.9991854945875 C 194.1125 377.99963347256437 193.55 376.875 193 375.5 C 192.45 374.125 192.3375 372.49273794456377 192.75 371.8727509879194 C 193.1625 371.2527640312751 194.625 370.99502113762446 196 371.29998900202906 Z " class="even" fill="#ffffff"></path><path d="M 179 380.5798534885507 C 181.475 380.9194997268371 184.2875 381.6029788803031 185.25 382.0986960518085 C 186.8005897652633 382.897297581784 186.41656321076294 383.76915376255585 181.8798296009581 389.75 C 179.06373588148503 393.4625 176.70123588148505 396.6005694631795 176.6298296009581 396.7234876959545 C 176.55842332043113 396.84640592872944 172.675 397.6332907405442 168 398.4721206110985 C 163.325 399.3109504816527 158.9375 399.99788101847315 158.25 399.99863291514396 C 157.5625 399.9993848118148 157 398.875 157 397.5 C 157 396.125 157.63482561633143 393.7625 158.4107235918476 392.25 C 159.18662156736377 390.7375 161.09912156736377 388.2890279319229 162.6607235918476 386.80895095982856 C 164.22232561633143 385.32887398773426 167.525 383.1828948342683 170 382.0401083965709 C 173.4127480716371 380.4643337656436 175.5872519283629 380.1115193290555 179 380.5798534885507 Z " class="even" fill="#ffffff"></path><path d="M 191 388 C 191.55 388 192.45 388.9 193 390 C 193.55 391.1 194 392.225 194 392.5 C 194 392.775 192.3125 393.4829597082164 190.25 394.0732437960364 C 188.1875 394.66352788385643 186.3875 394.88852788385645 186.25 394.5732437960364 C 186.1125 394.2579597082164 186.9 392.65 188 391 C 189.1 389.35 190.45 388 191 388 Z " class="even" fill="#ffffff"></path><path d="M 150.0881441166286 395.5 C 150.51235106361145 396.6 150.8910578429539 398.0625 150.92971473738962 398.75 C 150.98139280783414 399.6690772810188 150.47052364963008 399.73526182481504 149 399 C 147.29745732052388 398.14872866026195 147.1722916495823 397.6653605144106 148.15842937923895 395.75 L 149.31685875847793 393.5 L 150.0881441166286 395.5 Z " class="even" fill="#ffffff"></path></g></svg>