<?xml version="1.0" standalone="no"?>
<!DOCTYPE svg PUBLIC "-//W3C//DTD SVG 20010904//EN"
 "http://www.w3.org/TR/2001/REC-SVG-20010904/DTD/svg10.dtd">
<svg version="1.0" xmlns="http://www.w3.org/2000/svg"
 width="416.000000pt" height="420.000000pt" viewBox="0 0 416.000000 420.000000"
 preserveAspectRatio="xMidYMid meet">

<g transform="translate(0.000000,420.000000) scale(0.100000,-0.100000)"
fill="#000000" stroke="none">
<path d="M2157 4193 c-4 -3 -7 -16 -7 -29 0 -17 -15 -29 -77 -59 -95 -45 -177
-61 -234 -47 -39 10 -40 10 -59 -29 -30 -58 -106 -113 -194 -140 l-75 -23 -20
-56 c-30 -81 -73 -133 -159 -191 l-77 -51 0 -82 c0 -68 -4 -90 -27 -136 -15
-30 -47 -75 -72 -99 l-44 -43 39 -52 c42 -55 79 -155 79 -215 0 -21 -7 -60
-15 -87 -8 -27 -15 -52 -15 -55 0 -4 20 -12 44 -19 55 -15 109 -59 142 -116
23 -40 25 -48 16 -91 -6 -27 -8 -103 -5 -173 l6 -126 -49 -43 c-26 -23 -86
-65 -132 -93 -101 -61 -147 -105 -162 -155 -10 -32 -9 -46 9 -92 31 -77 24
-91 -50 -91 -83 0 -95 -9 -109 -77 -17 -81 -30 -112 -52 -124 -41 -22 -98 48
-98 123 l-1 33 -14 -25 c-10 -18 -14 -61 -15 -151 0 -107 3 -134 21 -174 l21
-48 -30 -29 c-26 -26 -40 -31 -113 -39 -175 -19 -222 -45 -393 -213 -154 -150
-226 -268 -226 -368 0 -44 16 -25 23 27 15 105 107 231 286 392 90 80 114 96
170 114 37 11 104 23 151 26 74 5 89 10 117 34 64 56 288 169 341 172 l26 2
33 -195 c45 -265 120 -501 210 -656 50 -85 76 -114 103 -114 18 0 16 4 -15 31
-21 19 -52 65 -75 113 -43 89 -130 338 -130 373 0 33 64 99 116 119 39 15 52
15 99 5 32 -7 59 -20 64 -29 4 -9 32 -84 61 -167 79 -226 201 -467 225 -443 4
4 -5 22 -19 41 -80 104 -306 738 -306 858 0 54 25 174 52 249 34 95 53 93 100
-7 49 -106 127 -222 174 -261 36 -30 39 -31 42 -12 2 11 5 20 8 20 2 0 28 -19
57 -42 28 -24 103 -74 165 -113 83 -51 123 -83 149 -117 19 -27 37 -48 40 -48
3 0 28 20 56 45 102 92 208 166 229 159 15 -4 33 8 77 53 31 32 69 74 84 93
l27 35 0 -50 c1 -97 39 -259 57 -242 3 3 -2 38 -11 78 -9 39 -15 74 -12 76 7
7 72 -124 107 -215 16 -42 29 -93 29 -114 0 -21 7 -55 15 -75 34 -89 55 -190
55 -270 l0 -83 51 0 c44 0 50 2 39 15 -8 9 -22 12 -42 8 l-31 -6 6 66 c5 56 0
88 -33 223 -22 86 -40 170 -40 188 0 42 30 89 81 126 101 73 159 16 209 -200
12 -52 30 -132 41 -177 10 -45 19 -100 19 -121 0 -36 -3 -40 -32 -48 -18 -6
-34 -17 -36 -27 -3 -15 -1 -16 25 -2 15 7 36 16 46 19 39 12 5 222 -84 519
-23 75 -39 140 -36 143 3 3 37 -5 74 -19 37 -14 106 -35 153 -48 277 -73 446
-163 584 -309 59 -63 146 -209 146 -246 0 -7 5 -16 12 -20 20 -12 2 61 -32
129 -62 127 -167 230 -330 322 -100 57 -256 121 -372 151 l-68 18 0 68 c0 37
-3 68 -7 68 -4 0 -17 -12 -29 -28 -19 -22 -26 -25 -41 -16 -19 12 -20 35 -7
132 5 44 3 56 -12 73 -17 19 -26 20 -80 15 -46 -5 -63 -3 -67 7 -2 7 4 66 14
132 25 159 21 177 -83 296 -44 50 -84 102 -89 115 -4 13 -11 59 -15 102 -5 71
-3 83 25 154 37 91 41 147 11 155 -11 3 -20 7 -20 9 0 1 9 40 20 86 12 50 20
118 20 171 0 106 14 138 94 216 l55 54 -35 68 -34 69 0 159 0 160 -44 30 c-50
34 -97 95 -150 193 -20 36 -42 70 -49 75 -7 6 -38 15 -69 22 -85 18 -116 44
-166 139 l-44 83 -71 -7 c-86 -7 -102 -2 -214 71 -92 60 -87 58 -96 48z m213
-261 c86 -30 151 -66 238 -132 73 -55 192 -176 192 -195 0 -4 -39 30 -87 76
-198 191 -400 266 -604 225 -226 -46 -458 -223 -568 -435 -107 -207 -117 -391
-34 -635 26 -79 26 -79 13 -71 -5 3 -26 56 -47 118 -35 107 -37 118 -37 247 0
122 2 143 27 215 51 146 122 279 187 348 106 114 286 221 424 253 80 18 223
11 296 -14z m-65 -52 c82 -12 190 -60 279 -124 58 -42 228 -206 213 -206 -3 0
-37 27 -74 61 -66 60 -150 109 -255 149 -69 26 -275 29 -359 4 -114 -33 -212
-91 -292 -170 -183 -181 -254 -349 -264 -627 -3 -87 -10 -160 -14 -163 -4 -2
-20 33 -35 78 -24 74 -27 99 -28 233 0 141 1 154 28 225 86 229 256 407 478
502 110 46 193 56 323 38z m250 -302 c27 -99 28 -99 75 -81 67 27 108 -4 79
-59 -6 -11 -8 -31 -5 -44 l7 -25 26 21 c14 11 37 20 51 20 23 0 24 -2 18 -38
-7 -47 0 -56 28 -37 25 18 58 19 74 3 9 -9 7 -17 -9 -34 -30 -32 -19 -55 21
-48 27 6 30 4 30 -20 0 -14 -4 -26 -10 -26 -5 0 -10 7 -10 15 0 8 -7 15 -16
15 -14 0 -15 -9 -10 -62 5 -48 3 -70 -9 -92 -15 -28 -15 -31 9 -55 14 -14 29
-21 33 -17 4 4 7 42 6 84 l-2 77 15 -45 c13 -42 13 -51 -8 -125 -12 -44 -23
-82 -25 -84 -2 -3 -17 8 -33 24 -16 16 -32 26 -35 24 -3 -3 12 -78 31 -167 20
-90 34 -165 32 -168 -3 -3 -43 3 -89 12 -63 13 -104 15 -162 10 -76 -8 -78 -9
-104 -47 -65 -98 -97 -264 -75 -389 9 -52 10 -48 11 56 1 116 26 230 58 266
25 28 139 53 240 53 108 0 126 -10 111 -63 -9 -35 -38 -52 -88 -52 -16 0 -74
-10 -130 -21 l-100 -22 -15 -50 c-18 -62 -19 -83 -2 -90 16 -6 173 17 208 31
19 8 31 26 48 71 12 33 26 63 31 66 6 4 6 -3 1 -17 -4 -12 -6 -98 -3 -190 l5
-168 -32 -62 c-17 -35 -47 -85 -68 -113 l-36 -49 -25 52 c-13 29 -49 79 -78
112 -38 43 -54 69 -54 88 0 16 -7 37 -15 48 -14 18 -15 16 -10 -26 5 -44 4
-46 -45 -88 -57 -50 -43 -53 -145 33 -45 38 -48 38 -61 20 -14 -18 -14 -18
-14 1 0 28 28 64 44 58 8 -3 17 -1 20 4 8 13 -22 24 -43 17 -9 -3 -25 -19 -36
-36 -15 -23 -37 -37 -86 -53 -87 -30 -150 -75 -201 -142 l-41 -55 -24 23 c-14
13 -41 52 -60 87 -35 61 -49 130 -53 246 l-1 30 -25 -30 -25 -30 7 30 c3 17
28 99 55 183 30 94 52 186 58 240 19 170 22 222 14 222 -4 0 -50 -38 -102 -84
-76 -69 -104 -88 -152 -102 -32 -10 -59 -21 -59 -24 0 -3 20 -39 45 -79 29
-47 45 -84 45 -104 -1 -89 -53 -379 -101 -554 -10 -40 -19 -85 -19 -100 0 -43
-14 -56 -56 -55 -53 2 -90 31 -86 68 2 16 3 58 2 93 0 77 25 140 77 188 l36
34 -6 103 c-4 57 -16 151 -27 210 -20 100 -20 111 -6 161 17 58 60 104 123
130 51 22 146 92 237 177 l80 74 -26 35 c-14 19 -29 44 -33 57 -3 12 -10 22
-15 22 -13 0 -79 -77 -117 -138 -67 -107 -87 -133 -117 -155 -27 -19 -25 -15
13 28 23 28 62 81 84 120 42 69 92 128 134 155 20 13 23 24 24 85 1 39 0 77
-2 85 -3 12 7 15 58 13 l62 -3 7 45 c5 36 10 45 26 45 24 0 56 -16 85 -42 l22
-20 20 32 c10 18 22 48 26 66 3 19 10 34 16 34 18 0 64 -28 88 -54 14 -14 28
-26 33 -26 11 0 10 38 -2 45 -32 20 20 95 66 95 15 0 42 -11 60 -25 l34 -26
32 66 c18 36 35 65 39 65 3 0 14 -28 24 -62z m340 -141 c8 -20 13 -37 10 -37
-5 0 -35 67 -35 78 0 11 10 -5 25 -41z m67 -942 c-2 -16 -13 -47 -25 -69 l-22
-41 -3 37 c-4 43 22 112 40 105 8 -2 12 -16 10 -32z m-146 -69 c7 -18 -21 -72
-41 -79 -12 -5 -15 3 -15 43 0 47 2 50 25 50 14 0 28 -6 31 -14z m-122 -39
c-9 -25 -34 -21 -34 6 0 13 3 27 7 31 11 11 34 -19 27 -37z m-60 1 c8 -32 7
-68 -1 -69 -5 0 -19 -2 -32 -5 -22 -4 -23 -2 -18 32 10 59 39 83 51 42z m-360
-313 c11 -8 32 -15 47 -15 16 0 44 -14 69 -35 51 -43 69 -44 103 -5 36 40 59
38 113 -12 69 -64 88 -107 88 -203 -1 -239 -190 -402 -426 -365 -104 16 -179
53 -238 116 -64 71 -85 132 -77 232 10 136 75 223 203 277 68 28 92 30 118 10z
m681 -57 c30 -67 52 -248 33 -278 -14 -23 -74 -57 -84 -48 -3 4 -3 39 1 78 6
59 11 73 31 87 31 20 32 67 4 148 -22 64 -22 65 -14 65 3 0 16 -24 29 -52z"/>
<path d="M2471 3498 c-60 -126 -84 -211 -79 -278 1 -27 0 -46 -4 -43 -19 11
-7 127 21 215 32 99 31 115 -14 144 -14 9 -32 13 -45 9 -22 -7 -50 -53 -43
-72 7 -19 21 -16 28 7 4 11 11 18 16 15 5 -4 -13 -48 -40 -98 -58 -109 -68
-154 -46 -198 18 -34 94 -74 126 -66 11 3 29 -3 42 -14 31 -26 9 -24 -86 6
-111 36 -195 34 -283 -5 -37 -17 -69 -28 -71 -26 -10 9 7 24 34 31 16 3 39 13
52 22 21 13 22 20 17 67 -4 29 -2 72 3 96 8 37 7 48 -7 63 -22 24 -72 50 -80
42 -4 -4 -17 -52 -29 -108 -20 -95 -21 -99 -22 -50 -1 57 -18 83 -56 83 -22 0
-23 -3 -30 -116 l-7 -115 27 -29 c27 -28 29 -28 54 -13 31 19 -174 -177 -235
-225 -23 -18 -71 -48 -105 -65 -70 -36 -86 -57 -42 -57 78 0 105 18 318 207
132 118 256 193 316 193 16 0 84 -20 152 -44 67 -24 132 -47 144 -51 13 -3 58
2 100 13 145 37 133 38 230 -28 48 -32 89 -57 91 -55 14 14 -16 61 -61 96
l-52 42 -100 -7 c-55 -3 -119 -11 -142 -16 -30 -7 -50 -6 -70 2 -27 12 -26 13
25 16 53 3 54 4 75 50 34 75 29 200 -13 322 -56 164 -50 162 -109 38z m85
-104 c40 -147 28 -255 -31 -270 -16 -4 -35 0 -51 11 -25 16 -26 19 -22 103 4
93 53 271 70 254 5 -5 20 -49 34 -98z m-567 -242 c1 -7 -3 -10 -9 -7 -5 3 -10
18 -9 33 0 24 1 25 9 7 5 -11 9 -26 9 -33z"/>
<path d="M2627 3484 c-24 -13 -28 -20 -22 -42 29 -117 31 -217 5 -292 -10 -30
-16 -57 -14 -59 11 -12 89 26 108 52 31 42 28 149 -8 241 -29 77 -30 80 -16
71 18 -11 31 5 20 26 -13 23 -35 24 -73 3z"/>
<path d="M2151 3396 c-49 -105 -55 -134 -41 -185 l11 -41 69 0 70 0 -10 26
c-15 39 -12 78 10 137 16 42 18 61 11 80 -13 33 -46 67 -66 67 -8 0 -31 -35
-54 -84z"/>
<path d="M2748 3381 c-12 -16 -13 -34 -5 -87 8 -54 7 -77 -7 -119 -20 -66 -21
-65 8 -65 30 0 63 40 72 84 3 18 -1 57 -10 87 -8 30 -16 67 -18 83 -4 36 -22
44 -40 17z"/>
<path d="M2834 3317 c-2 -7 -6 -47 -8 -88 -2 -41 -7 -86 -11 -101 -6 -23 -3
-29 22 -42 23 -11 33 -12 42 -3 14 14 14 95 -1 151 -9 34 -9 51 0 70 11 24 10
26 -14 26 -13 0 -27 -6 -30 -13z"/>
<path d="M2404 2913 c-3 -16 -17 -53 -31 -85 l-25 -56 26 -44 c14 -23 42 -60
62 -81 l37 -38 34 33 c19 18 44 48 55 66 19 32 20 38 7 127 -7 52 -16 92 -19
90 -4 -2 -10 -42 -14 -87 -5 -66 -12 -91 -33 -120 -14 -21 -30 -38 -34 -38 -5
0 -20 18 -35 39 -24 38 -25 43 -19 130 7 89 2 119 -11 64z"/>
<path d="M2474 2889 c-3 -6 -9 -40 -12 -75 -4 -53 -2 -64 10 -64 19 0 28 29
28 92 0 46 -12 69 -26 47z"/>
<path d="M1496 2694 c-9 -24 -7 -28 9 -14 17 14 20 30 6 30 -5 0 -12 -7 -15
-16z"/>
<path d="M1987 2696 c-85 -24 -81 -36 14 -36 136 -1 340 -54 355 -94 3 -9 10
-16 14 -16 13 0 -19 85 -40 108 -28 29 -79 42 -195 47 -68 4 -116 1 -148 -9z"/>
<path d="M1526 2608 c-3 -7 -7 -42 -10 -78 -5 -56 -2 -72 19 -115 14 -27 25
-60 25 -73 0 -13 4 -20 10 -17 16 10 12 47 -10 87 -26 50 -35 110 -20 138 19
36 32 4 24 -62 -4 -37 -2 -58 4 -58 6 0 12 15 14 33 2 17 8 30 13 27 10 -5 11
-33 3 -114 -2 -24 2 -41 9 -43 7 -3 10 3 6 16 -3 11 2 42 12 70 18 56 18 57
-42 149 -35 52 -50 63 -57 40z"/>
<path d="M1921 2524 c9 -11 27 -44 41 -75 22 -49 31 -58 75 -77 89 -38 249
-55 259 -27 10 24 -16 83 -46 109 -29 24 -179 66 -295 82 -48 6 -49 6 -34 -12z
m137 -36 c7 -7 12 -34 12 -61 0 -46 -1 -48 -22 -41 -13 3 -29 11 -36 17 -21
17 -44 67 -38 83 7 17 67 19 84 2z m81 -22 c9 -10 8 -16 -4 -26 -21 -17 -51 6
-34 26 6 8 15 14 19 14 4 0 13 -6 19 -14z m125 -48 c9 -12 16 -33 16 -45 0
-20 -5 -23 -35 -23 -30 0 -35 3 -35 23 1 65 26 86 54 45z"/>
<path d="M2175 2300 l-30 -8 30 0 c17 0 39 3 50 8 l20 9 -20 -1 c-11 0 -33 -4
-50 -8z"/>
<path d="M1530 2199 c0 -5 5 -7 12 -3 21 13 -4 -18 -43 -53 -47 -43 -81 -111
-77 -155 3 -32 4 -33 46 -30 24 2 49 -2 57 -8 11 -9 16 -4 24 27 17 61 14 114
-10 139 l-20 22 31 22 c25 18 28 25 19 36 -13 16 -39 19 -39 3z"/>
<path d="M2022 1881 c-17 -10 78 -104 141 -139 37 -21 51 -23 117 -18 41 3
118 1 171 -5 63 -6 105 -6 122 0 34 13 107 79 107 97 0 23 -20 16 -30 -10 -5
-14 -25 -36 -45 -49 -37 -25 -38 -25 -214 -20 -97 2 -190 9 -208 14 -31 10
-118 86 -138 121 -7 12 -15 15 -23 9z"/>
<path d="M2285 1615 c22 -7 67 -14 100 -14 83 0 42 15 -61 23 -77 5 -78 5 -39
-9z"/>
<path d="M2125 4150 c-3 -5 -1 -10 4 -10 6 0 11 5 11 10 0 6 -2 10 -4 10 -3 0
-8 -4 -11 -10z"/>
<path d="M2700 837 c-156 -53 -230 -109 -230 -174 0 -33 16 -28 23 6 4 16 19
38 36 50 39 28 151 82 229 111 34 12 65 27 68 31 10 16 -31 9 -126 -24z"/>
<path d="M1720 850 c0 -5 12 -12 28 -16 83 -18 214 -55 264 -74 54 -20 98 -60
98 -89 0 -6 5 -11 10 -11 28 0 -1 65 -45 102 -33 28 -123 59 -234 79 -121 22
-121 22 -121 9z"/>
<path d="M2340 710 c-6 -11 -7 -20 -2 -20 5 0 17 9 27 20 16 18 16 20 2 20 -9
0 -21 -9 -27 -20z"/>
</g>
</svg>
